<svg xmlns="http://www.w3.org/2000/svg" width="44" height="30" viewBox="0 0 44 30">
  <g id="Group_669" data-name="Group 669" transform="translate(-967 -832)">
    <rect id="Rectangle_2797" data-name="Rectangle 2797" width="44" height="30" rx="3" transform="translate(967 832)" fill="#e53030"/>
    <g id="Group_668" data-name="Group 668" transform="translate(971.623 841.438)">
      <path id="Path_1450" data-name="Path 1450" d="M15.4,13.7l2.925,4.614-4.909-1.94,5.063-1.428L15.168,19.2Z" transform="translate(-4.623 -10.377)" fill="#fff"/>
      <path id="Path_1451" data-name="Path 1451" d="M14.113,19.154a4.279,4.279,0,0,1-4.174,2.332,5.435,5.435,0,0,1-5.315-5.552,5.437,5.437,0,0,1,5.315-5.553,4.756,4.756,0,0,1,4.672,3.147,3.7,3.7,0,0,0-3.542-2.039,4.427,4.427,0,0,0-4.326,4.522,4.424,4.424,0,0,0,4.326,4.521,3.2,3.2,0,0,0,3.044-1.378Z" transform="translate(-4.623 -10.377)" fill="#fff"/>
    </g>
  </g>
</svg>
