<svg xmlns="http://www.w3.org/2000/svg" width="44" height="30" viewBox="0 0 44 30">
  <g id="india" transform="translate(0.24 -80)">
    <path id="Path_1572" data-name="Path 1572" d="M0,304v6.036a4.163,4.163,0,0,0,4.223,4.27H39.418a4.163,4.163,0,0,0,4.223-4.27V304Z" transform="translate(-0.06 -204.306)" fill="#359846"/>
    <path id="Path_1573" data-name="Path 1573" d="M39.418,80H4.223A4.163,4.163,0,0,0,0,84.27v6.036H43.642V84.27A4.163,4.163,0,0,0,39.418,80Z" transform="translate(-0.06)" fill="#ea8634"/>
    <rect id="Rectangle_2819" data-name="Rectangle 2819" width="44" height="10" transform="translate(-0.24 90)" fill="#fcfbf0"/>
    <path id="Path_1574" data-name="Path 1574" d="M327.273,314.306a4.387,4.387,0,0,0,4.564-4.27V304H315.2Z" transform="translate(-288.256 -204.306)" fill="#21872f"/>
    <path id="Path_1575" data-name="Path 1575" d="M83.022,80H48L59.627,90.306h27.6V84.27A4.153,4.153,0,0,0,83.022,80Z" transform="translate(-43.644)" fill="#e27423"/>
    <path id="Path_1576" data-name="Path 1576" d="M192.515,202.306h16.564V192H180Z" transform="translate(-165.497 -102.153)" fill="#f7f4e2"/>
    <path id="Path_1577" data-name="Path 1577" d="M83.022,80H48L80.431,90.306h6.794V84.27A4.153,4.153,0,0,0,83.022,80Z" transform="translate(-43.644)" fill="#d86619"/>
    <path id="Path_1578" data-name="Path 1578" d="M421.909,194.061V192H414.4Z" transform="translate(-378.328 -102.022)" fill="#f2e9c2"/>
    <path id="Path_1579" data-name="Path 1579" d="M43.642,368.074a4.138,4.138,0,0,1-4.223,4.343H4.223A4.29,4.29,0,0,1,0,368" transform="translate(-0.06 -262.417)" fill="#167a20"/>
    <path id="Path_1580" data-name="Path 1580" d="M202.238,197.6a4.638,4.638,0,1,0,4.638,4.638A4.618,4.618,0,0,0,202.238,197.6Zm3.828,5.153c0,.074.074.221.147.221-.074.221-.074.442-.147.663-.074-.074-.221,0-.294.074s0,.221.074.294c-.074.221-.221.368-.294.589a.182.182,0,0,0-.294.074.224.224,0,0,0,0,.294l-.221.221-1.62-1.84-.663-.515.074-.074.663.515,2.135,1.1L203.71,202.9l-.736-.294c0-.074,0-.074.074-.147l.736.294,2.356.515-2.282-.736-.81-.147v-.147l.81.074,2.429-.147-2.429-.147-.81.074v-.147l.81-.147,2.282-.736-2.356.515-.736.294c0-.074,0-.074-.074-.147l.736-.294,2.061-1.325-2.135,1.1-.663.515-.074-.074.663-.515,1.62-1.84.221.221a.224.224,0,0,0,0,.294.443.443,0,0,0,.294.074,1.48,1.48,0,0,1,.294.589c-.074.074-.147.147-.074.294.074.074.147.147.294.074a2.149,2.149,0,0,1,.147.663c-.074,0-.147.147-.147.221s.147.221.221.147v.589C206.139,202.532,206.066,202.606,206.066,202.753Zm-6.4-3.607a.224.224,0,0,0,.294,0,.443.443,0,0,0,.074-.294,1.48,1.48,0,0,1,.589-.294c.074.074.147.147.294.074.074-.074.147-.147.074-.294a2.149,2.149,0,0,1,.663-.147c0,.074.147.147.221.147s.221-.147.147-.221h.589c0,.074.074.221.147.221s.221-.074.221-.147c.221.074.442.074.663.147-.074.074,0,.221.074.294s.221,0,.294-.074c.221.074.368.221.589.294a.182.182,0,0,0,.074.294.224.224,0,0,0,.294,0l.221.221-1.84,1.62-.515.663-.074-.074.515-.663,1.1-2.135-1.472,1.988-.294.736c-.074,0-.074,0-.147-.074l.294-.736.515-2.356-.736,2.282-.147.81h-.147l.074-.81-.074-2.429-.147,2.429.074.81h-.147l-.147-.81-.736-2.282.515,2.356.294.736c-.074,0-.074,0-.147.074l-.294-.736-1.325-2.061,1.1,2.135.515.663-.074.074-.515-.663-1.84-1.62C199.44,199.293,199.514,199.22,199.661,199.146Zm-.294,5.963-.221-.221a.224.224,0,0,0,0-.294.443.443,0,0,0-.294-.074,1.48,1.48,0,0,1-.294-.589c.074-.074.147-.147.074-.294-.074-.074-.147-.147-.294-.074a2.149,2.149,0,0,1-.147-.663c.074,0,.147-.147.147-.221s-.147-.221-.221-.147v-.589c.074,0,.221-.074.221-.147s-.074-.221-.147-.221c.074-.221.074-.442.147-.663.074.074.221,0,.294-.074s0-.221-.074-.294c.074-.221.221-.368.294-.589a.182.182,0,0,0,.294-.074c.074-.147.074-.221,0-.294l.221-.221,1.62,1.84.663.515-.074.074-.663-.515-2.135-1.1,2.061,1.325.736.294c0,.074,0,.074-.074.147l-.736-.294-2.356-.515,2.282.736.81.147v.147l-.81-.074-2.5.147,2.429.147.81-.074v.147l-.81.147-2.282.736,2.356-.515.736-.294c0,.074,0,.074.074.147l-.736.294L198.7,204.3l2.135-1.1.663-.515.074.074-.663.515Zm2.577,1.178c0-.074-.074-.221-.147-.221s-.221.074-.221.147c-.221-.074-.442-.074-.663-.147.074-.074,0-.221-.074-.294s-.221,0-.294.074c-.221-.074-.368-.221-.589-.294a.182.182,0,0,0-.074-.294.224.224,0,0,0-.294,0l-.221-.221,1.84-1.62.515-.663.074.074-.515.663-1.1,2.135,1.325-2.061.294-.736c.074,0,.074,0,.147.074l-.294.736-.515,2.356.736-2.282.147-.81h.147l-.074.81.147,2.429.147-2.429-.074-.81h.147l.147.81.736,2.282-.515-2.356-.294-.736c.074,0,.074,0,.147-.074l.294.736,1.325,2.061-1.1-2.135-.515-.663.074-.074.515.663,1.84,1.62-.221.221a.224.224,0,0,0-.294,0,.443.443,0,0,0-.074.294,1.48,1.48,0,0,1-.589.294c-.074-.074-.147-.147-.294-.074s-.147.147-.074.294a2.15,2.15,0,0,1-.663.147c0-.074-.147-.147-.221-.147s-.221.147-.147.221h-.589Z" transform="translate(-180.477 -107.238)" fill="#7d7dbc"/>
    <g id="Group_684" data-name="Group 684" transform="translate(18.198 90.396)">
      <path id="Path_1581" data-name="Path 1581" d="M259.2,257.6l.221.221v-.074Z" transform="translate(-254.636 -252.079)" fill="#6060b2"/>
      <path id="Path_1582" data-name="Path 1582" d="M213.134,197.6a4.846,4.846,0,0,0-3.534,1.62l.442.368.221-.221.221-.221a.224.224,0,0,0,.294,0,.443.443,0,0,0,.074-.294c.074-.074.221-.074.294-.147l1.1,2.135.515.663-.074.074-.515-.663-1.84-1.62,1.546,1.767.221.147.442.368h0l1.251,1.031.074-.074.663.515,2.135,1.1c-.074.074-.074.221-.147.294a.182.182,0,0,0-.294.074.224.224,0,0,0,0,.294h0l.442.368a4.736,4.736,0,0,0,1.1-3.018A4.6,4.6,0,0,0,213.134,197.6Zm-.368,3.9-.294-.736-1.325-1.988a.382.382,0,0,1,.294-.147c.074.074.147.147.294.074.074-.074.147-.147.074-.294.074,0,.221-.074.294-.074l.515,2.356.294.736C212.839,201.5,212.839,201.5,212.765,201.5Zm.442-.074.074-.81-.147-2.429-.147,2.429.074.81h-.147l-.147-.81-.736-2.282c.074,0,.221-.074.294-.074,0,.074.147.147.221.147s.221-.147.147-.221h.589c0,.074.074.221.147.221s.221-.074.221-.147c.074,0,.221.074.294.074l-.736,2.282-.147.81Zm.147.074.294-.736.515-2.356c.074,0,.221.074.294.074-.074.074,0,.221.074.294s.221,0,.294-.074c.074.074.221.074.294.147l-1.325,1.914-.294.736Zm3.313,2.208c-.074.074,0,.221.074.294-.074.074-.074.221-.147.294l-1.988-1.4-.736-.294c0-.074,0-.074.074-.147l.736.294,2.356.515c0,.074-.074.221-.074.294A.382.382,0,0,0,216.667,203.71Zm.515-1.767v.589c-.074,0-.221.074-.221.147s.074.221.147.221c0,.074-.074.221-.074.294l-2.282-.736-.81-.147v-.147l.81.074,2.429-.147-2.429-.147-.81.074v-.147l.81-.147,2.282-.736c0,.074.074.221.074.294-.074,0-.147.147-.147.221C216.962,201.87,217.035,201.943,217.182,201.943Zm-.515-1.178c.074.074.147.147.294.074,0,.074.074.221.074.294l-2.356.515-.736.294c0-.074,0-.074-.074-.147l.736-.294,1.988-1.325a.382.382,0,0,1,.147.294C216.667,200.545,216.594,200.692,216.667,200.765Zm-.074-.515-2.135,1.1-.663.515-.074-.074.663-.515,1.62-1.84-1.84,1.62-.515.663-.074-.074.515-.663,1.1-2.135c.074.074.221.074.294.147a.182.182,0,0,0,.074.294.224.224,0,0,0,.294,0l.221.221.221.221a.224.224,0,0,0,0,.294.443.443,0,0,0,.294.074C216.52,200.029,216.594,200.1,216.594,200.25Z" transform="translate(-209.6 -197.6)" fill="#6060b2"/>
    </g>
  </g>
</svg>
