<svg xmlns="http://www.w3.org/2000/svg" width="44" height="30" viewBox="0 0 44 30">
  <g id="layer1" transform="translate(-0.794 -2.117)">
    <path id="path272-3" d="M5.216,2.117a4.679,4.679,0,0,0-4.422,4.9v20.2a4.679,4.679,0,0,0,4.424,4.9H40.371a4.679,4.679,0,0,0,4.422-4.9V7.017a4.679,4.679,0,0,0-4.424-4.9Z" transform="translate(0 0)" fill="#f2f2f2"/>
    <path id="path5916-0" d="M2.248,2.117l8.327,3.01L2.248,8.137l8.327,3.01-8.327,3.01,8.327,3.01-8.327,3.01,8.327,3.01L2.248,26.2l8.327,3.01L2.531,32.117H32.041a4.65,4.65,0,0,0,4.352-4.9V7.017a4.649,4.649,0,0,0-4.353-4.9Z" transform="translate(8.401)" fill="#d40000"/>
  </g>
</svg>
