<svg xmlns="http://www.w3.org/2000/svg" width="44" height="30" viewBox="0 0 44 30">
  <g id="qatar" transform="translate(0 -88.276)">
    <path id="Path_1570" data-name="Path 1570" d="M19.961,116.817a.21.21,0,0,0,0-.4l-4.177-1.267a.21.21,0,0,1,0-.4l4.175-1.261a.21.21,0,0,0,0-.4l-4.175-1.261a.21.21,0,0,1,0-.4l4.177-1.266a.21.21,0,0,0,0-.4l-4.177-1.262a.21.21,0,0,1,0-.4l4.177-1.267a.21.21,0,0,0,0-.4l-4.177-1.262a.21.21,0,0,1,0-.4l4.177-1.267a.21.21,0,0,0,0-.4l-4.177-1.262a.21.21,0,0,1,0-.4l4.177-1.267a.21.21,0,0,0,0-.4l-4.175-1.261a.21.21,0,0,1,0-.4l4.175-1.261a.21.21,0,0,0,0-.4L15.784,95.15a.21.21,0,0,1,0-.4l4.177-1.262a.21.21,0,0,0,0-.4l-4.177-1.267a.21.21,0,0,1,0-.4l4.177-1.262a.21.21,0,0,0,0-.4l-4.812-1.459a.209.209,0,0,0-.062-.009H3.456A3.442,3.442,0,0,0,0,91.709V114.85a3.443,3.443,0,0,0,3.456,3.429h11.63a.213.213,0,0,0,.062-.009Z" transform="translate(0 -0.004)" fill="#f5f5f5"/>
    <path id="Path_1571" data-name="Path 1571" d="M193.068,88.276h-25.7a.186.186,0,0,1,.058.009l4.479,1.459a.215.215,0,0,1,0,.4l-3.887,1.262a.215.215,0,0,0,0,.4l3.888,1.267a.215.215,0,0,1,0,.4l-3.887,1.262a.215.215,0,0,0,0,.4l3.888,1.267a.215.215,0,0,1,0,.4l-3.886,1.261a.215.215,0,0,0,0,.4l3.886,1.261a.215.215,0,0,1,0,.4l-3.888,1.267a.215.215,0,0,0,0,.4l3.887,1.262a.215.215,0,0,1,0,.4l-3.888,1.267a.215.215,0,0,0,0,.4l3.887,1.262a.215.215,0,0,1,0,.4l-3.888,1.267a.215.215,0,0,0,0,.4l3.887,1.262a.215.215,0,0,1,0,.4l-3.888,1.266a.215.215,0,0,0,0,.4l3.886,1.261a.215.215,0,0,1,0,.4l-3.886,1.261a.215.215,0,0,0,0,.4l3.888,1.267a.215.215,0,0,1,0,.4l-4.479,1.454a.188.188,0,0,1-.058.009h25.7a3.328,3.328,0,0,0,3.217-3.429V91.705A3.328,3.328,0,0,0,193.068,88.276Z" transform="translate(-152.285)" fill="#873250"/>
  </g>
</svg>
