<svg xmlns="http://www.w3.org/2000/svg" width="44" height="30" viewBox="0 0 44 30">
  <g id="saudi-arabia" transform="translate(0 -88.276)">
    <path id="Path_1462" data-name="Path 1462" d="M40.7,118.276H3.3A3.364,3.364,0,0,1,0,114.847V91.705a3.364,3.364,0,0,1,3.3-3.429H40.7A3.364,3.364,0,0,1,44,91.705v23.142A3.364,3.364,0,0,1,40.7,118.276Z" transform="translate(0 0)" fill="#0c9e00"/>
    <g id="Group_671" data-name="Group 671" transform="translate(7.997 94.489)">
      <path id="Path_1463" data-name="Path 1463" d="M102.537,169.345c.079.5.384.663.649.642a.652.652,0,0,0,.587-.612v-1.731a.157.157,0,0,1,.315,0v1.739a.629.629,0,0,0,.863.584l.157-.063c.014,1.453-.074,2.731-.076,2.754a.315.315,0,0,0,.292.336h.023a.315.315,0,0,0,.314-.292c.007-.1.1-1.5.075-3.05l.1-.038a.316.316,0,0,1,.257.011.9.9,0,0,0,1.038-.169l.057-.057a.94.94,0,0,0,.228-.967l-.268-.8a.315.315,0,0,0,.233-.583l-.63-.315a.315.315,0,0,0-.44.381l.507,1.52a.313.313,0,0,1-.076.322l-.057.057a.27.27,0,0,1-.312.05.941.941,0,0,0-.654-.066,10.858,10.858,0,0,0-.385-2.712.315.315,0,0,0-.6.2,10.824,10.824,0,0,1,.361,2.748l-.377.151v-1.739a.787.787,0,0,0-1.574,0v1.524l-.321-1.586a.315.315,0,1,0-.617.125Z" transform="translate(-102.11 -165.42)" fill="#f5f5f5"/>
      <path id="Path_1464" data-name="Path 1464" d="M109.475,163.538a.315.315,0,0,0,.315-.315v-.315a.315.315,0,1,0-.63,0v.315A.315.315,0,0,0,109.475,163.538Z" transform="translate(-108.442 -162.26)" fill="#f5f5f5"/>
      <path id="Path_1465" data-name="Path 1465" d="M144.272,163.224h.315a.315.315,0,1,0,0-.63h-.315a.315.315,0,1,0,0,.63Z" transform="translate(-140.091 -162.26)" fill="#f5f5f5"/>
      <path id="Path_1466" data-name="Path 1466" d="M107.406,214.834l-1.574.945a.315.315,0,1,0,.324.54l1.574-.945a.315.315,0,1,0-.324-.54Z" transform="translate(-105.276 -209.732)" fill="#f5f5f5"/>
      <path id="Path_1467" data-name="Path 1467" d="M121.075,171.081l.007,0a.718.718,0,0,0,.145.3.618.618,0,0,0,.536.208.869.869,0,0,0,.655-.344.573.573,0,0,0,.066.039.6.6,0,0,0,.554-.018,1.2,1.2,0,0,0,.564-1.108.322.322,0,0,0-.328-.3.316.316,0,0,0-.3.327s.007.378-.221.516a.766.766,0,0,1-.1-.265.315.315,0,0,0-.625.052c0,.046-.01.45-.322.484a.769.769,0,0,1,0-.412.315.315,0,0,0-.483-.333l-.176.12c-.083-1.826-.276-3.953-.278-3.98a.315.315,0,1,0-.627.057c0,.029.225,2.491.294,4.37l-.048.047a.811.811,0,0,0-.689-.542,1.149,1.149,0,0,0-1.109.7.745.745,0,0,0,.241.939,1.049,1.049,0,0,0,.939.043,2.633,2.633,0,0,1-.512.971,1.321,1.321,0,0,1-1.006.513.827.827,0,0,1-.611-.261,1.8,1.8,0,0,1-.333-1.126.315.315,0,0,0-.3-.331.309.309,0,0,0-.332.3,2.415,2.415,0,0,0,.494,1.582,1.444,1.444,0,0,0,1.054.468h.063a1.918,1.918,0,0,0,1.445-.733,3.256,3.256,0,0,0,.721-1.614,3.568,3.568,0,0,1-1.511,2.827,1.572,1.572,0,0,1-1.577.115,1.351,1.351,0,0,1-.693-1.332.315.315,0,1,0-.625-.078,1.977,1.977,0,0,0,1.039,1.974,2.14,2.14,0,0,0,.953.227,2.33,2.33,0,0,0,1.235-.372,4.186,4.186,0,0,0,1.808-3.364C121.085,171.536,121.081,171.315,121.075,171.081Zm-1.9.325c-.056-.037-.012-.156,0-.18a.535.535,0,0,1,.439-.31h.025c.04,0,.147.014.193.252,0,.025.009.051.012.077C119.493,171.453,119.257,171.459,119.176,171.406Z" transform="translate(-114.7 -165.423)" fill="#f5f5f5"/>
      <path id="Path_1468" data-name="Path 1468" d="M102.416,243.936a.316.316,0,0,0-.43.112.644.644,0,0,1-.053.075l-.01-.026a2.118,2.118,0,0,1,.009-1.068.315.315,0,0,0-.608-.162,2.711,2.711,0,0,0,.009,1.451c.144.385.366.482.527.5l.042,0a.827.827,0,0,0,.627-.45A.314.314,0,0,0,102.416,243.936Z" transform="translate(-101.225 -235.057)" fill="#f5f5f5"/>
      <path id="Path_1469" data-name="Path 1469" d="M175.444,165.427a.312.312,0,0,0,.194-.067l1.587-1.246a.3.3,0,0,0,.052-.061.788.788,0,1,0-.9-.07l-1.123.882a.315.315,0,0,0,.195.562Zm1.43-2.2a.157.157,0,1,1-.157.157A.158.158,0,0,1,176.873,163.224Z" transform="translate(-168.442 -162.26)" fill="#f5f5f5"/>
      <path id="Path_1470" data-name="Path 1470" d="M185.614,190.448a.314.314,0,0,0-.4.2.962.962,0,0,0,.123.928.635.635,0,0,0,.47.18,1.383,1.383,0,0,0,.435-.08.315.315,0,1,0-.2-.6,1.089,1.089,0,0,1-.257.055.6.6,0,0,1,.026-.288A.314.314,0,0,0,185.614,190.448Z" transform="translate(-177.556 -187.578)" fill="#f5f5f5"/>
      <path id="Path_1471" data-name="Path 1471" d="M227.842,163.694a.315.315,0,0,0,.391-.214l.184-.63a.315.315,0,0,0-.6-.177l-.184.63A.315.315,0,0,0,227.842,163.694Z" transform="translate(-216.18 -162.126)" fill="#f5f5f5"/>
      <path id="Path_1472" data-name="Path 1472" d="M206.156,160.428a.315.315,0,1,0,.318-.543c-.063-.037-.055-.141-.052-.162a.247.247,0,0,1,.144-.21.315.315,0,0,0-.187-.6.864.864,0,0,0-.583.74A.776.776,0,0,0,206.156,160.428Z" transform="translate(-196.329 -158.897)" fill="#f5f5f5"/>
      <path id="Path_1473" data-name="Path 1473" d="M179.069,232.189a.315.315,0,0,0-.059.624.591.591,0,0,1,.059.32.315.315,0,1,0,.63,0C179.7,232.2,179.095,232.189,179.069,232.189Z" transform="translate(-171.74 -225.558)" fill="#f5f5f5"/>
      <path id="Path_1474" data-name="Path 1474" d="M235.05,208.73a.724.724,0,0,0,.118.01,1.076,1.076,0,0,0,.745-.372.315.315,0,1,0-.445-.445c-.188.188-.29.192-.316.187-.06-.009-.115-.087-.127-.108a.315.315,0,0,0-.561.285A.851.851,0,0,0,235.05,208.73Z" transform="translate(-222.379 -203.402)" fill="#f5f5f5"/>
      <path id="Path_1475" data-name="Path 1475" d="M294.2,191.042l-.005-.014a.315.315,0,0,0-.6.2.705.705,0,0,0,.512.491.525.525,0,0,0,.069,0,.771.771,0,0,0,.609-.42.315.315,0,1,0-.524-.349A.952.952,0,0,1,294.2,191.042Z" transform="translate(-276.182 -187.927)" fill="#f5f5f5"/>
      <path id="Path_1476" data-name="Path 1476" d="M208.131,174.252c0-1.343-.059-2.6-.141-3.706a15.942,15.942,0,0,1,1.105,2.242.315.315,0,0,0,.295.2.319.319,0,0,0,.111-.02.315.315,0,0,0,.184-.406,20.851,20.851,0,0,0-1.821-3.451c-.172-1.7-.365-2.772-.368-2.792a.315.315,0,0,0-.619.112c0,.014.1.568.22,1.5-.242-.359-.466-.683-.655-.949l.015,0a.315.315,0,1,0,.2-.6l-.945-.315a.313.313,0,0,0-.355.114.316.316,0,0,0-.046.1.687.687,0,0,0-.657-.158.536.536,0,0,0-.3.56,2.844,2.844,0,0,0,.217.892c.185.525.3.911.105,1.1a.344.344,0,0,1-.323.113c-.194-.049-.386-.308-.514-.692a.29.29,0,0,0-.025-.044,5.353,5.353,0,0,0-.1-1.742.315.315,0,1,0-.617.124,3,3,0,0,1-.165,2.243.565.565,0,0,1-.471.213.181.181,0,0,1-.151-.07,3.034,3.034,0,0,1-.167-1.775.315.315,0,0,0-.312-.359c-.542,0-.747.616-.928,1.16-.079.239-.228.683-.331.729-.191,0-.314-.56-.315-.945a.315.315,0,0,0-.315-.314h0a.314.314,0,0,0-.314.315c0,.726.247,1.574.945,1.574.519,0,.729-.566.905-1.091a1.974,1.974,0,0,0,.357,1.119.808.808,0,0,0,.626.287,1.2,1.2,0,0,0,.958-.444,1.45,1.45,0,0,0,.117-.174,1.174,1.174,0,0,0,.66.5.907.907,0,0,0,.222.028,1,1,0,0,0,.686-.293.925.925,0,0,0,.105-.127.85.85,0,0,0,.233.035,1.274,1.274,0,0,0,.653-.2.315.315,0,0,0-.338-.531.668.668,0,0,1-.356.094,3.249,3.249,0,0,0-.239-1.035,4.388,4.388,0,0,1-.163-.526c.026.022.051.045.074.067a.315.315,0,0,0,.445,0,.3.3,0,0,0,.046-.069c.326.45,1,1.394,1.688,2.483.132,1.339.247,3.046.247,4.919a.315.315,0,0,0,.63,0Z" transform="translate(-190.727 -165.417)" fill="#f5f5f5"/>
      <path id="Path_1477" data-name="Path 1477" d="M293.9,167.334a.315.315,0,1,0,.63,0,3.211,3.211,0,0,0-.348-1.085.315.315,0,0,0-.563.282A2.794,2.794,0,0,1,293.9,167.334Z" transform="translate(-276.182 -165.426)" fill="#f5f5f5"/>
      <path id="Path_1478" data-name="Path 1478" d="M263.985,250.253a.314.314,0,0,0-.423.139.9.9,0,0,1-.13.187,1.758,1.758,0,0,1,.083-.582.315.315,0,0,0-.524-.315l-.63.63a.315.315,0,1,0,.445.445l.016-.016a.651.651,0,0,0,.169.331.576.576,0,0,0,.409.18.565.565,0,0,0,.087-.007,1.025,1.025,0,0,0,.638-.57A.314.314,0,0,0,263.985,250.253Z" transform="translate(-247.699 -241.384)" fill="#f5f5f5"/>
      <path id="Path_1479" data-name="Path 1479" d="M175.241,206.573h-2.219q.029-.118.061-.224c.885-.184,1.411-.47,1.565-.851a.7.7,0,0,0-.118-.707.78.78,0,0,0-.8-.339c-.447.091-.846.573-1.132,1.344a3.618,3.618,0,0,0-1.818.786,4.879,4.879,0,0,0-.653-2.093.315.315,0,1,0-.524.349,4.546,4.546,0,0,1,.577,2.344,2.491,2.491,0,0,1-1.889,2.519c-.353,0-.508-.42-.576-.776a3.615,3.615,0,0,0,1.511-1.667,2.5,2.5,0,0,0-.209-1.707L169,205.5l.02.019a.315.315,0,0,0,.445-.445c-.184-.184-.541-.474-.866-.338a.536.536,0,0,0-.3.56,1.338,1.338,0,0,0,.147.506,1.9,1.9,0,0,1,.178,1.307,2.663,2.663,0,0,1-1.03,1.137.31.31,0,0,0-.238-.116h0a.315.315,0,0,0-.314.315c0,.057,0,.117.006.179a16.552,16.552,0,0,1-2.026,1.108.315.315,0,0,0,.131.6.31.31,0,0,0,.13-.028,18.127,18.127,0,0,0,1.88-1.007,1.225,1.225,0,0,0,1.138,1.035,2.675,2.675,0,0,0,2.107-1.54,1.831,1.831,0,0,0,.21.3,3.548,3.548,0,0,0,2.406.924.315.315,0,0,0,.023-.629.674.674,0,0,1-.393-.191.54.54,0,0,1-.1-.413c.032-.388,1.284-.678,2.387-.7a.315.315,0,0,0,.292-.209l.315-.885a.315.315,0,0,0-.3-.42Zm-1.382-1.5a.113.113,0,0,1,.024,0c.03,0,.078.015.141.1.012.016.05.071.041.095-.036.089-.253.236-.706.37C173.557,205.243,173.752,205.091,173.859,205.07Zm-1.9,4.139a1.927,1.927,0,0,1-.871-.53,1.338,1.338,0,0,1-.279-1.109.925.925,0,0,1,.066-.133c.443-.041,1.628.134,1.71.473a1.057,1.057,0,0,0-.666.821A1.329,1.329,0,0,0,171.957,209.208Z" transform="translate(-159.076 -200.237)" fill="#f5f5f5"/>
      <path id="Path_1480" data-name="Path 1480" d="M292.61,167.23l-.315-.945a.315.315,0,0,0-.612.131c.217,2.172.628,6.409.628,6.895,0,.436-.776,1.3-2.03,1.922a.315.315,0,0,0,.282.563c1.145-.573,2.378-1.595,2.378-2.485,0-.465-.322-3.812-.506-5.692A.315.315,0,0,0,292.61,167.23Z" transform="translate(-273.018 -165.421)" fill="#f5f5f5"/>
      <path id="Path_1481" data-name="Path 1481" d="M336.382,194.764a.315.315,0,0,0,.528-.3,1.588,1.588,0,0,1-.045-.611.319.319,0,0,0,.327-.27.315.315,0,0,0-.267-.356.568.568,0,0,0-.519.175.72.72,0,0,0-.159.338l-.365-.365a.315.315,0,0,0-.445.445Z" transform="translate(-314.164 -190.114)" fill="#f5f5f5"/>
      <path id="Path_1482" data-name="Path 1482" d="M341.441,213.322l-1.181.846a.315.315,0,1,0,.367.512l1.181-.846a.315.315,0,1,0-.367-.512Z" transform="translate(-318.514 -208.344)" fill="#f5f5f5"/>
      <path id="Path_1483" data-name="Path 1483" d="M352.809,225.783a.315.315,0,0,0,.028.418.873.873,0,0,1,.064.453.315.315,0,0,0,.3.326h.011a.315.315,0,0,0,.315-.3c.023-.643-.187-.877-.279-.949A.315.315,0,0,0,352.809,225.783Z" transform="translate(-329.986 -219.621)" fill="#f5f5f5"/>
      <path id="Path_1484" data-name="Path 1484" d="M327.07,173.908a.315.315,0,0,0,.315-.315c0-.464-.024-.983-.063-1.523a11.485,11.485,0,0,1,.738,1.371.314.314,0,0,0,.289.191.31.31,0,0,0,.124-.026.315.315,0,0,0,.165-.413,17.324,17.324,0,0,0-1.44-2.484c-.124-1.156-.285-2.288-.41-3.1a.3.3,0,0,0,.2-.049.311.311,0,0,0,.139-.284.307.307,0,0,0,.035.09,1.145,1.145,0,0,1,.115.771.315.315,0,0,0,.245.372.333.333,0,0,0,.064.007.315.315,0,0,0,.308-.251,1.784,1.784,0,0,0-.2-1.236.316.316,0,0,0-.435-.1.312.312,0,0,0-.141.285.307.307,0,0,0-.035-.091l-.531-.826a.315.315,0,0,0-.575.225c0,.025.245,1.406.458,3.072-.241-.341-.483-.674-.717-.992-.038-.476-.076-.917-.109-1.281a.315.315,0,0,0,.192-.443l-.315-.63a.315.315,0,0,0-.595.172c.038.376.077.792.115,1.229-.2-.263-.383-.5-.541-.706a.315.315,0,0,0-.064-.521l-.63-.315a.315.315,0,0,0-.387.478c.017.021.792.993,1.719,2.247a25.317,25.317,0,0,1,.117,4.7c-.028.083-.076.181-.121.184-.19.026-.644-.4-.872-.855a.438.438,0,0,0-.422-.285c-.338.021-.47.393-.71,1.069a4.433,4.433,0,0,1-.626,1.333,3.576,3.576,0,0,1-.391-1.24.313.313,0,0,0,.608-.106c0-.47-.328-4.045-.512-6a.315.315,0,0,0,.181-.391l-.315-.945a.315.315,0,0,0-.612.129c.214,2.246.615,6.584.628,7.183,0-.005,0-.011,0-.016a.315.315,0,1,0-.623.089c.092.644.327,1.75.868,1.93a.526.526,0,0,0,.168.027.618.618,0,0,0,.443-.205,4.539,4.539,0,0,0,.78-1.573c.046-.13.1-.285.153-.417.289.422.793.947,1.3.906a.773.773,0,0,0,.674-.613,17.732,17.732,0,0,0-.012-3.931c.265.372.531.752.784,1.128.1.943.169,1.887.169,2.663A.315.315,0,0,0,327.07,173.908Z" transform="translate(-301.501 -165.427)" fill="#f5f5f5"/>
      <path id="Path_1485" data-name="Path 1485" d="M383.791,172.644c-.223-1.661-.534-3.586-.73-4.767a.31.31,0,0,0,.264-.056.315.315,0,0,0,.059-.441l-.571-.748a.315.315,0,0,0-.56.245c.006.032.567,3.264.914,5.851a2.951,2.951,0,0,1-.518,2.362,1.393,1.393,0,0,1-1.155.43.315.315,0,1,0-.04.628c.053,0,.106,0,.158,0a1.987,1.987,0,0,0,1.5-.635A3.515,3.515,0,0,0,383.791,172.644Z" transform="translate(-355.832 -165.82)" fill="#f5f5f5"/>
      <path id="Path_1486" data-name="Path 1486" d="M371.1,256.233a.319.319,0,0,0,.016.442.132.132,0,0,1,.038.065.148.148,0,0,1-.048.07.315.315,0,1,0,.445.445.714.714,0,0,0,.232-.537.749.749,0,0,0-.247-.513A.312.312,0,0,0,371.1,256.233Z" transform="translate(-346.604 -247.333)" fill="#f5f5f5"/>
      <path id="Path_1487" data-name="Path 1487" d="M163.476,327.25h-2.2v-.315a.315.315,0,0,0-.63,0v.315H143.957a4.4,4.4,0,0,0,2.833.945h13.852v.63a.315.315,0,0,0,.315.315h2.519a.945.945,0,1,0,0-1.889Zm0,1.259h-2.2v-.315h2.519l-.057-.169a.305.305,0,0,1,.057.169A.315.315,0,0,1,163.476,328.509Z" transform="translate(-140.091 -311.445)" fill="#f5f5f5"/>
    </g>
  </g>
</svg>
