<svg xmlns="http://www.w3.org/2000/svg" width="44" height="30" viewBox="0 0 44 30">
  <g id="south-korea" transform="translate(0 -88.275)">
    <path id="Path_1654" data-name="Path 1654" d="M40.7,88.275H3.3A3.364,3.364,0,0,0,0,91.7v23.141a3.364,3.364,0,0,0,3.3,3.429H40.7a3.364,3.364,0,0,0,3.3-3.429V91.7A3.364,3.364,0,0,0,40.7,88.275Z" transform="translate(0)" fill="#f5f5f5"/>
    <path id="Path_1655" data-name="Path 1655" d="M186.873,169.054a7.939,7.939,0,0,0-11,2.2,3.966,3.966,0,1,0,6.6,4.4,3.966,3.966,0,1,1,6.6,4.4,7.936,7.936,0,0,0-2.2-11" transform="translate(-160.489 -72.369)" fill="#ff4b55"/>
    <path id="Path_1656" data-name="Path 1656" d="M169.134,207.038a3.966,3.966,0,1,0,6.6,4.4,3.966,3.966,0,1,1,6.6,4.4,7.932,7.932,0,1,1-13.2-8.8" transform="translate(-153.709 -108.182)" fill="#41479b"/>
    <g id="Group_689" data-name="Group 689" transform="translate(6.737 91.516)">
      <path id="Path_1657" data-name="Path 1657" d="M338.84,147.4l1.442,2.167a.4.4,0,0,1-.11.55l-.366.245a.4.4,0,0,1-.551-.11l-1.444-2.167a.4.4,0,0,1,.11-.55l.367-.245A.4.4,0,0,1,338.84,147.4Z" transform="translate(-315.131 -145.161)" fill="#464655"/>
      <path id="Path_1658" data-name="Path 1658" d="M363.594,184.564l1.447,2.166a.4.4,0,0,1-.111.552l-.367.243a.4.4,0,0,1-.549-.111l-1.446-2.164a.4.4,0,0,1,.109-.55l.366-.245A.4.4,0,0,1,363.594,184.564Z" transform="translate(-337.661 -179.029)" fill="#464655"/>
      <path id="Path_1659" data-name="Path 1659" d="M355.983,135.942l3.671,5.51a.4.4,0,0,1-.11.55l-.369.246a.4.4,0,0,1-.55-.11l-3.672-5.509a.4.4,0,0,1,.11-.551l.37-.246A.4.4,0,0,1,355.983,135.942Z" transform="translate(-330.73 -134.736)" fill="#464655"/>
      <path id="Path_1660" data-name="Path 1660" d="M373.12,124.5l1.445,2.171a.4.4,0,0,1-.112.551l-.367.243a.4.4,0,0,1-.549-.111l-1.446-2.169a.4.4,0,0,1,.11-.55l.369-.246A.4.4,0,0,1,373.12,124.5Z" transform="translate(-346.328 -124.321)" fill="#464655"/>
      <path id="Path_1661" data-name="Path 1661" d="M397.9,161.739l1.443,2.167a.4.4,0,0,1-.11.55l-.366.245a.4.4,0,0,1-.551-.11l-1.443-2.167a.4.4,0,0,1,.11-.55l.366-.245A.4.4,0,0,1,397.9,161.739Z" transform="translate(-368.881 -158.214)" fill="#464655"/>
      <path id="Path_1662" data-name="Path 1662" d="M121.64,292.193l3.671,5.5a.4.4,0,0,1-.11.55l-.368.245a.4.4,0,0,1-.551-.11l-3.671-5.5a.4.4,0,0,1,.11-.55l.368-.245A.4.4,0,0,1,121.64,292.193Z" transform="translate(-117.462 -277.1)" fill="#464655"/>
      <path id="Path_1663" data-name="Path 1663" d="M104.5,303.641l1.441,2.162a.4.4,0,0,1-.109.55l-.366.245a.4.4,0,0,1-.551-.109l-1.443-2.161a.4.4,0,0,1,.11-.55l.367-.245A.4.4,0,0,1,104.5,303.641Z" transform="translate(-101.867 -287.484)" fill="#464655"/>
      <path id="Path_1664" data-name="Path 1664" d="M129.269,340.813l1.443,2.167a.4.4,0,0,1-.11.55l-.367.245a.4.4,0,0,1-.551-.11L128.24,341.5a.4.4,0,0,1,.11-.55l.368-.245A.4.4,0,0,1,129.269,340.813Z" transform="translate(-124.404 -321.348)" fill="#464655"/>
      <path id="Path_1665" data-name="Path 1665" d="M87.351,315.086l3.668,5.5a.4.4,0,0,1-.11.55l-.367.245a.4.4,0,0,1-.551-.11l-3.671-5.5a.4.4,0,0,1,.11-.551l.369-.246A.4.4,0,0,1,87.351,315.086Z" transform="translate(-86.255 -297.935)" fill="#464655"/>
      <path id="Path_1666" data-name="Path 1666" d="M120.62,152.9l3.67-5.508a.4.4,0,0,1,.551-.11l.367.245a.4.4,0,0,1,.11.55l-3.672,5.5a.4.4,0,0,1-.549.111l-.366-.242A.4.4,0,0,1,120.62,152.9Z" transform="translate(-117.469 -145.158)" fill="#464655"/>
      <path id="Path_1667" data-name="Path 1667" d="M103.472,141.458l3.671-5.509a.4.4,0,0,1,.551-.11l.367.245a.4.4,0,0,1,.11.55l-3.67,5.509a.4.4,0,0,1-.551.11l-.368-.245A.4.4,0,0,1,103.472,141.458Z" transform="translate(-101.863 -134.743)" fill="#464655"/>
      <path id="Path_1668" data-name="Path 1668" d="M86.317,130.017l3.671-5.515a.4.4,0,0,1,.551-.11l.367.245a.4.4,0,0,1,.11.55L87.347,130.7a.4.4,0,0,1-.551.11l-.369-.246A.4.4,0,0,1,86.317,130.017Z" transform="translate(-86.251 -124.325)" fill="#464655"/>
      <path id="Path_1669" data-name="Path 1669" d="M337.816,331.527l1.443-2.161a.4.4,0,0,1,.551-.109l.366.245a.4.4,0,0,1,.109.55l-1.441,2.162a.4.4,0,0,1-.551.11l-.367-.245A.4.4,0,0,1,337.816,331.527Z" transform="translate(-315.135 -310.931)" fill="#464655"/>
      <path id="Path_1670" data-name="Path 1670" d="M362.57,294.367l1.445-2.172a.4.4,0,0,1,.551-.11l.368.245a.4.4,0,0,1,.11.551L363.6,295.05a.4.4,0,0,1-.549.11l-.365-.242A.4.4,0,0,1,362.57,294.367Z" transform="translate(-337.664 -277.059)" fill="#464655"/>
      <path id="Path_1671" data-name="Path 1671" d="M354.952,342.977l1.444-2.167a.4.4,0,0,1,.55-.11l.369.246a.4.4,0,0,1,.11.55l-1.443,2.167a.4.4,0,0,1-.55.11l-.37-.246A.4.4,0,0,1,354.952,342.977Z" transform="translate(-330.73 -321.345)" fill="#464655"/>
      <path id="Path_1672" data-name="Path 1672" d="M379.725,305.8l1.445-2.162a.4.4,0,0,1,.55-.11l.369.246a.4.4,0,0,1,.11.551l-1.445,2.162a.4.4,0,0,1-.55.11l-.369-.246A.4.4,0,0,1,379.725,305.8Z" transform="translate(-353.276 -287.48)" fill="#464655"/>
      <path id="Path_1673" data-name="Path 1673" d="M372.093,354.4l1.445-2.163a.4.4,0,0,1,.549-.111l.367.243a.4.4,0,0,1,.111.551l-1.444,2.166a.4.4,0,0,1-.55.11l-.368-.246A.4.4,0,0,1,372.093,354.4Z" transform="translate(-346.33 -331.748)" fill="#464655"/>
      <path id="Path_1674" data-name="Path 1674" d="M396.88,317.259l1.442-2.166a.4.4,0,0,1,.551-.11l.366.245a.4.4,0,0,1,.11.55l-1.443,2.163a.4.4,0,0,1-.549.111l-.365-.242A.4.4,0,0,1,396.88,317.259Z" transform="translate(-368.889 -297.941)" fill="#464655"/>
    </g>
  </g>
</svg>
