<svg xmlns="http://www.w3.org/2000/svg" width="44" height="30" viewBox="0 0 44 30">
  <g id="spain" transform="translate(0 -88.276)">
    <g id="Group_673" data-name="Group 673" transform="translate(0 88.276)">
      <path id="Path_1491" data-name="Path 1491" d="M0,355.877a3.3,3.3,0,0,0,3.3,3.3H40.7a3.3,3.3,0,0,0,3.3-3.3V353.1H0Z" transform="translate(0 -329.172)" fill="#c8414b"/>
      <path id="Path_1492" data-name="Path 1492" d="M40.7,88.276H3.3a3.3,3.3,0,0,0-3.3,3.3v2.774H44V91.571A3.3,3.3,0,0,0,40.7,88.276Z" transform="translate(0 -88.276)" fill="#c8414b"/>
    </g>
    <rect id="Rectangle_2800" data-name="Rectangle 2800" width="44" height="17.862" transform="translate(0 94.345)" fill="#ffd250"/>
    <path id="Path_1493" data-name="Path 1493" d="M209.325,219.689l.643-2.894a.427.427,0,0,0-.417-.519H209.1a.427.427,0,0,0-.417.519Z" transform="translate(-190.738 -116.492)" fill="#c8414b"/>
    <rect id="Rectangle_2801" data-name="Rectangle 2801" width="1.517" height="6.448" transform="translate(17.828 101.848)" fill="#f5f5f5"/>
    <rect id="Rectangle_2802" data-name="Rectangle 2802" width="2.276" height="0.759" transform="translate(17.448 100.921)" fill="#fab446"/>
    <g id="Group_674" data-name="Group 674" transform="translate(6.553 99.852)">
      <rect id="Rectangle_2803" data-name="Rectangle 2803" width="3.793" height="0.759" transform="translate(9.378 3.414)" fill="#c8414b"/>
      <path id="Path_1494" data-name="Path 1494" d="M205.31,275.172l-2.276-.759v-.759l2.276.759Z" transform="translate(-192.139 -268.724)" fill="#c8414b"/>
      <path id="Path_1495" data-name="Path 1495" d="M76.911,219.689l.643-2.894a.427.427,0,0,0-.417-.519h-.453a.427.427,0,0,0-.417.519Z" transform="translate(-76.257 -216.275)" fill="#c8414b"/>
    </g>
    <path id="Path_1496" data-name="Path 1496" d="M106.69,229.517a.759.759,0,0,0-.759.759v4.931c0,.922.86,2.655,3.793,2.655s3.793-1.733,3.793-2.655v-4.931a.759.759,0,0,0-.759-.759Z" transform="translate(-96.828 -128.408)" fill="#f5f5f5"/>
    <g id="Group_675" data-name="Group 675" transform="translate(9.103 101.084)">
      <path id="Path_1497" data-name="Path 1497" d="M109.724,233.31h-3.793v-3.034a.759.759,0,0,1,.759-.759h3.034Z" transform="translate(-105.931 -229.517)" fill="#c8414b"/>
      <path id="Path_1498" data-name="Path 1498" d="M150.069,273.655h3.793v1.9a1.9,1.9,0,0,1-1.9,1.9h0a1.9,1.9,0,0,1-1.9-1.9Z" transform="translate(-146.276 -269.862)" fill="#c8414b"/>
    </g>
    <path id="Path_1499" data-name="Path 1499" d="M105.931,273.655h3.793v1.9a1.9,1.9,0,0,1-1.9,1.9h0a1.9,1.9,0,0,1-1.9-1.9Z" transform="translate(-96.828 -168.702)" fill="#fab446"/>
    <g id="Group_676" data-name="Group 676" transform="translate(9.862 104.952)">
      <path id="Path_1500" data-name="Path 1500" d="M133.172,277.06v-3.405h-.759v3.755A1.877,1.877,0,0,0,133.172,277.06Z" transform="translate(-130.896 -273.655)" fill="#c8414b"/>
      <path id="Path_1501" data-name="Path 1501" d="M115.517,277.41v-3.755h-.759v3.405A1.878,1.878,0,0,0,115.517,277.41Z" transform="translate(-114.758 -273.655)" fill="#c8414b"/>
    </g>
    <rect id="Rectangle_2804" data-name="Rectangle 2804" width="2.276" height="0.759" transform="translate(9.862 103.292)" fill="#ffb441"/>
    <g id="Group_677" data-name="Group 677" transform="translate(9.862 101.732)">
      <rect id="Rectangle_2805" data-name="Rectangle 2805" width="2.276" height="0.759" fill="#fab446"/>
      <rect id="Rectangle_2806" data-name="Rectangle 2806" width="1.517" height="1.374" transform="translate(0.379 0.451)" fill="#fab446"/>
    </g>
    <rect id="Rectangle_2807" data-name="Rectangle 2807" width="1.517" height="6.448" transform="translate(6.448 101.848)" fill="#f5f5f5"/>
    <g id="Group_678" data-name="Group 678" transform="translate(6.069 101.084)">
      <rect id="Rectangle_2808" data-name="Rectangle 2808" width="2.276" height="0.759" transform="translate(0 6.828)" fill="#fab446"/>
      <rect id="Rectangle_2809" data-name="Rectangle 2809" width="2.276" height="0.759" fill="#fab446"/>
    </g>
    <rect id="Rectangle_2810" data-name="Rectangle 2810" width="3.034" height="0.759" transform="translate(5.69 108.824)" fill="#5064aa"/>
    <rect id="Rectangle_2811" data-name="Rectangle 2811" width="2.276" height="0.759" transform="translate(17.828 108.034)" fill="#fab446"/>
    <rect id="Rectangle_2812" data-name="Rectangle 2812" width="3.034" height="0.759" transform="translate(17.069 108.824)" fill="#5064aa"/>
    <rect id="Rectangle_2813" data-name="Rectangle 2813" width="4.552" height="0.759" transform="translate(10.621 100.131)" fill="#fab446"/>
    <rect id="Rectangle_2814" data-name="Rectangle 2814" width="0.759" height="2.276" transform="translate(12.518 97.782)" fill="#ffb441"/>
    <g id="Group_679" data-name="Group 679" transform="translate(9.483 96.604)">
      <path id="Path_1502" data-name="Path 1502" d="M129.138,183.242a1.138,1.138,0,1,1,1.138-1.138A1.139,1.139,0,0,1,129.138,183.242Zm0-1.517a.379.379,0,1,0,.379.379A.38.38,0,0,0,129.138,181.725Z" transform="translate(-126.483 -180.966)" fill="#f5f5f5"/>
      <path id="Path_1503" data-name="Path 1503" d="M146.794,183.242a1.138,1.138,0,1,1,1.138-1.138A1.139,1.139,0,0,1,146.794,183.242Zm0-1.517a.379.379,0,1,0,.379.379A.38.38,0,0,0,146.794,181.725Z" transform="translate(-142.621 -180.966)" fill="#f5f5f5"/>
      <path id="Path_1504" data-name="Path 1504" d="M164.449,192.07a1.138,1.138,0,1,1,1.138-1.138A1.139,1.139,0,0,1,164.449,192.07Zm0-1.517a.379.379,0,1,0,.379.379A.38.38,0,0,0,164.449,190.553Z" transform="translate(-158.759 -189.035)" fill="#f5f5f5"/>
      <path id="Path_1505" data-name="Path 1505" d="M111.483,192.07a1.138,1.138,0,1,1,1.138-1.138A1.139,1.139,0,0,1,111.483,192.07Zm0-1.517a.379.379,0,1,0,.379.379A.38.38,0,0,0,111.483,190.553Z" transform="translate(-110.345 -189.035)" fill="#f5f5f5"/>
    </g>
    <path id="Path_1506" data-name="Path 1506" d="M160.413,283.242v.379a.379.379,0,1,1-.759,0v-.379h.759m.759-.759H158.9v1.138a1.138,1.138,0,1,0,2.276,0v-1.138Z" transform="translate(-145.241 -176.78)" fill="#fab446"/>
    <path id="Path_1507" data-name="Path 1507" d="M164.069,240.62h0a.759.759,0,0,1-.759-.759V239.1a.759.759,0,0,1,.759-.759h0a.759.759,0,0,1,.759.759v.759A.759.759,0,0,1,164.069,240.62Z" transform="translate(-149.276 -136.602)" fill="#ffa0d2"/>
    <circle id="Ellipse_1" data-name="Ellipse 1" cx="1.138" cy="1.138" r="1.138" transform="translate(11.759 103.722)" fill="#5064aa"/>
    <rect id="Rectangle_2815" data-name="Rectangle 2815" width="0.759" height="2.276" transform="translate(12.518 96.197)" fill="#fab446"/>
    <path id="Path_1508" data-name="Path 1508" d="M115.517,196.483l-.759-.759.444-.444a3.663,3.663,0,0,1,2.59-1.073h0a3.663,3.663,0,0,1,2.59,1.073l.444.444-.759.759Z" transform="translate(-104.896 -96.426)" fill="#c8414b"/>
    <g id="Group_680" data-name="Group 680" transform="translate(11 98.945)">
      <circle id="Ellipse_2" data-name="Ellipse 2" cx="0.379" cy="0.379" r="0.379" transform="translate(1.518)" fill="#ffd250"/>
      <circle id="Ellipse_3" data-name="Ellipse 3" cx="0.379" cy="0.379" r="0.379" fill="#ffd250"/>
      <circle id="Ellipse_4" data-name="Ellipse 4" cx="0.379" cy="0.379" r="0.379" transform="translate(3.034)" fill="#ffd250"/>
    </g>
    <g id="Group_681" data-name="Group 681" transform="translate(6.069 103.345)">
      <rect id="Rectangle_2816" data-name="Rectangle 2816" width="3.793" height="0.759" fill="#c8414b"/>
      <path id="Path_1509" data-name="Path 1509" d="M70.621,275.172l2.276-.759v-.759l-2.276.759Z" transform="translate(-70.621 -272.138)" fill="#c8414b"/>
    </g>
  </g>
</svg>
