<svg xmlns="http://www.w3.org/2000/svg" width="44" height="30" viewBox="0 0 44 30">
  <g id="switzerland" transform="translate(0 -88.276)">
    <path id="Path_1568" data-name="Path 1568" d="M40.7,118.276H3.3A3.364,3.364,0,0,1,0,114.847V91.705a3.364,3.364,0,0,1,3.3-3.429H40.7A3.364,3.364,0,0,1,44,91.705v23.142A3.364,3.364,0,0,1,40.7,118.276Z" transform="translate(0 0)" fill="#d62a18"/>
    <path id="Path_1569" data-name="Path 1569" d="M168.473,156.334h-5.6v-5.482a.792.792,0,0,0-.8-.783h-4.8a.792.792,0,0,0-.8.783v5.482h-5.6a.792.792,0,0,0-.8.783v4.7a.792.792,0,0,0,.8.783h5.6v5.482a.792.792,0,0,0,.8.783h4.8a.792.792,0,0,0,.8-.783V162.6h5.6a.792.792,0,0,0,.8-.783v-4.7A.792.792,0,0,0,168.473,156.334Z" transform="translate(-137.67 -56.191)" fill="#f5f5f5"/>
  </g>
</svg>
