<svg xmlns="http://www.w3.org/2000/svg" width="44" height="30" viewBox="0 0 44 30">
  <g id="thailand" transform="translate(0 -88.3)">
    <path id="Path_1488" data-name="Path 1488" d="M40.708,88.3H3.291A3.361,3.361,0,0,0,0,91.726v23.148A3.361,3.361,0,0,0,3.291,118.3H40.7a3.361,3.361,0,0,0,3.291-3.426V91.726A3.348,3.348,0,0,0,40.708,88.3Z" fill="#f5f5f5"/>
    <g id="Group_672" data-name="Group 672" transform="translate(0 88.3)">
      <path id="Path_1489" data-name="Path 1489" d="M0,372.113a3.371,3.371,0,0,0,3.291,3.444H40.7a3.371,3.371,0,0,0,3.291-3.444V370.8H0Z" transform="translate(0 -345.557)" fill="#ff4b55"/>
      <path id="Path_1490" data-name="Path 1490" d="M40.709,88.3H3.291A3.371,3.371,0,0,0,0,91.744v1.313H44V91.744A3.371,3.371,0,0,0,40.709,88.3Z" transform="translate(0 -88.3)" fill="#ff4b55"/>
    </g>
    <rect id="Rectangle_2799" data-name="Rectangle 2799" width="44" height="11.115" transform="translate(0 97.742)" fill="#41479b"/>
  </g>
</svg>
