<svg xmlns="http://www.w3.org/2000/svg" width="44" height="30" viewBox="0 0 44 30">
  <g id="united-states" transform="translate(0 -90.839)">
    <path id="Path_1519" data-name="Path 1519" d="M50.764,90.839H30.914L9,106.883v13.335H50.764l1.418-.88v-2.786l-.923-.928v-2.634l.923-.724v-4.286l-.83-.841v-2.694l.83-.75V99.41l-.83-.776V96.273l.83-1.148V92.339A1.461,1.461,0,0,0,50.764,90.839Z" transform="translate(-8.182 0)" fill="#e5646e"/>
    <path id="Path_1520" data-name="Path 1520" d="M256.333,138.028h23.23v4.288h-23.23Z" transform="translate(-235.563 -42.901)" fill="#f2f2f6"/>
    <path id="Path_1521" data-name="Path 1521" d="M256,232.4l.75,4.288h22.51V232.4Z" transform="translate(-235.26 -128.71)" fill="#f2f2f6"/>
    <path id="Path_1522" data-name="Path 1522" d="M1.419,278.641V271L0,271.781v4.288l.6.542v2.817l-.6.929v2.787a1.462,1.462,0,0,0,1.419,1.5H42.581a1.462,1.462,0,0,0,1.419-1.5H5.677a4.385,4.385,0,0,1-4.258-4.5Z" transform="translate(0 -163.805)" fill="#db4655"/>
    <path id="Path_1523" data-name="Path 1523" d="M29.466,90.839H6.955L6,92.34l.955,15.65h22.51Z" transform="translate(-5.455)" fill="#5055a0"/>
    <path id="Path_1524" data-name="Path 1524" d="M1.5,90.839A1.5,1.5,0,0,0,0,92.34v15.65H1.5Z" fill="#3f3f8f"/>
    <path id="Path_1525" data-name="Path 1525" d="M25.569,112.642a.75.75,0,0,1-.007-1.5h.007a.75.75,0,1,1,0,1.5Z" transform="translate(-22.56 -18.457)" fill="#fff"/>
    <path id="Path_1526" data-name="Path 1526" d="M25.569,178.707a.75.75,0,0,1-.007-1.5h.007a.75.75,0,1,1,0,1.5Z" transform="translate(-22.56 -78.523)" fill="#fff"/>
    <path id="Path_1527" data-name="Path 1527" d="M25.569,244.771a.75.75,0,0,1-.007-1.5h.007a.75.75,0,1,1,0,1.5Z" transform="translate(-22.56 -138.588)" fill="#fff"/>
    <path id="Path_1528" data-name="Path 1528" d="M25.569,145.675a.75.75,0,0,1-.007-1.5h.007a.75.75,0,1,1,0,1.5Z" transform="translate(-22.56 -48.491)" fill="#f2f2f6"/>
    <path id="Path_1529" data-name="Path 1529" d="M25.569,211.739a.75.75,0,0,1-.007-1.5h.007a.75.75,0,1,1,0,1.5Z" transform="translate(-22.56 -108.555)" fill="#f2f2f6"/>
    <path id="Path_1530" data-name="Path 1530" d="M223.762,112.642a.75.75,0,0,1-.007-1.5h.007a.75.75,0,1,1,0,1.5Z" transform="translate(-203.88 -18.457)" fill="#fff"/>
    <path id="Path_1531" data-name="Path 1531" d="M223.762,178.707a.75.75,0,0,1-.007-1.5h.007a.75.75,0,1,1,0,1.5Z" transform="translate(-203.88 -78.523)" fill="#fff"/>
    <path id="Path_1532" data-name="Path 1532" d="M223.762,244.771a.75.75,0,0,1-.007-1.5h.007a.75.75,0,1,1,0,1.5Z" transform="translate(-203.88 -138.588)" fill="#fff"/>
    <g id="Group_683" data-name="Group 683" transform="translate(6.757 92.684)">
      <path id="Path_1533" data-name="Path 1533" d="M223.762,145.675a.75.75,0,0,1-.007-1.5h.007a.75.75,0,1,1,0,1.5Z" transform="translate(-209.502 -141.173)" fill="#f2f2f6"/>
      <path id="Path_1534" data-name="Path 1534" d="M223.762,211.739a.75.75,0,0,1-.007-1.5h.007a.75.75,0,1,1,0,1.5Z" transform="translate(-209.502 -201.234)" fill="#f2f2f6"/>
      <path id="Path_1535" data-name="Path 1535" d="M75.117,112.642a.75.75,0,0,1-.007-1.5h.007a.75.75,0,1,1,0,1.5Z" transform="translate(-74.363 -111.141)" fill="#f2f2f6"/>
      <path id="Path_1536" data-name="Path 1536" d="M75.117,178.707a.75.75,0,0,1-.007-1.5h.007a.75.75,0,1,1,0,1.5Z" transform="translate(-74.363 -171.203)" fill="#f2f2f6"/>
      <path id="Path_1537" data-name="Path 1537" d="M75.117,244.771a.75.75,0,0,1-.007-1.5h.007a.75.75,0,1,1,0,1.5Z" transform="translate(-74.363 -231.265)" fill="#f2f2f6"/>
    </g>
    <path id="Path_1538" data-name="Path 1538" d="M75.117,145.675a.75.75,0,0,1-.007-1.5h.007a.75.75,0,1,1,0,1.5Z" transform="translate(-67.606 -48.491)" fill="#fff"/>
    <path id="Path_1539" data-name="Path 1539" d="M75.117,211.739a.75.75,0,0,1-.007-1.5h.007a.75.75,0,1,1,0,1.5Z" transform="translate(-67.606 -108.555)" fill="#fff"/>
    <path id="Path_1540" data-name="Path 1540" d="M50.343,129.158a.75.75,0,0,1-.007-1.5h.007a.75.75,0,1,1,0,1.5Z" transform="translate(-45.083 -33.473)" fill="#fff"/>
    <path id="Path_1541" data-name="Path 1541" d="M50.343,195.223a.75.75,0,0,1-.007-1.5h.007a.75.75,0,1,1,0,1.5Z" transform="translate(-45.083 -93.539)" fill="#fff"/>
    <path id="Path_1542" data-name="Path 1542" d="M50.343,162.191a.75.75,0,0,1-.007-1.5h.007a.75.75,0,1,1,0,1.5Z" transform="translate(-45.083 -63.507)" fill="#f2f2f6"/>
    <path id="Path_1543" data-name="Path 1543" d="M50.343,228.255a.75.75,0,0,1-.007-1.5h.007a.75.75,0,1,1,0,1.5Z" transform="translate(-45.083 -123.571)" fill="#f2f2f6"/>
    <path id="Path_1544" data-name="Path 1544" d="M124.666,112.642a.75.75,0,0,1-.007-1.5h.007a.75.75,0,1,1,0,1.5Z" transform="translate(-113.284 -18.457)" fill="#fff"/>
    <path id="Path_1545" data-name="Path 1545" d="M124.666,178.707a.75.75,0,0,1-.007-1.5h.007a.75.75,0,1,1,0,1.5Z" transform="translate(-113.284 -78.523)" fill="#fff"/>
    <path id="Path_1546" data-name="Path 1546" d="M124.666,244.771a.75.75,0,0,1-.007-1.5h.007a.75.75,0,1,1,0,1.5Z" transform="translate(-113.284 -138.588)" fill="#fff"/>
    <path id="Path_1547" data-name="Path 1547" d="M124.666,145.675a.75.75,0,0,1-.007-1.5h.007a.75.75,0,1,1,0,1.5Z" transform="translate(-113.284 -48.491)" fill="#f2f2f6"/>
    <path id="Path_1548" data-name="Path 1548" d="M124.666,211.739a.75.75,0,0,1-.007-1.5h.007a.75.75,0,1,1,0,1.5Z" transform="translate(-113.284 -108.555)" fill="#f2f2f6"/>
    <path id="Path_1549" data-name="Path 1549" d="M99.891,129.158a.75.75,0,0,1-.007-1.5h.007a.75.75,0,1,1,0,1.5Z" transform="translate(-90.634 -33.473)" fill="#f2f2f6"/>
    <path id="Path_1550" data-name="Path 1550" d="M99.891,195.223a.75.75,0,0,1-.007-1.5h.007a.75.75,0,1,1,0,1.5Z" transform="translate(-90.634 -93.539)" fill="#f2f2f6"/>
    <path id="Path_1551" data-name="Path 1551" d="M99.891,162.191a.75.75,0,0,1-.007-1.5h.007a.75.75,0,1,1,0,1.5Z" transform="translate(-90.634 -63.507)" fill="#fff"/>
    <path id="Path_1552" data-name="Path 1552" d="M99.891,228.255a.75.75,0,0,1-.007-1.5h.007a.75.75,0,1,1,0,1.5Z" transform="translate(-90.634 -123.571)" fill="#fff"/>
    <path id="Path_1553" data-name="Path 1553" d="M174.133,112.642a.75.75,0,0,1-.007-1.5h.007a.75.75,0,1,1,0,1.5Z" transform="translate(-158.508 -18.457)" fill="#f2f2f6"/>
    <path id="Path_1554" data-name="Path 1554" d="M174.133,178.707a.75.75,0,0,1-.007-1.5h.007a.75.75,0,1,1,0,1.5Z" transform="translate(-158.508 -78.523)" fill="#f2f2f6"/>
    <path id="Path_1555" data-name="Path 1555" d="M174.133,244.771a.75.75,0,0,1-.007-1.5h.007a.75.75,0,1,1,0,1.5Z" transform="translate(-158.508 -138.588)" fill="#f2f2f6"/>
    <path id="Path_1556" data-name="Path 1556" d="M174.133,145.675a.75.75,0,0,1-.007-1.5h.007a.75.75,0,1,1,0,1.5Z" transform="translate(-158.508 -48.491)" fill="#fff"/>
    <path id="Path_1557" data-name="Path 1557" d="M174.133,211.739a.75.75,0,0,1-.007-1.5h.007a.75.75,0,1,1,0,1.5Z" transform="translate(-158.508 -108.555)" fill="#fff"/>
    <path id="Path_1558" data-name="Path 1558" d="M149.359,129.158a.75.75,0,0,1-.007-1.5h.007a.75.75,0,1,1,0,1.5Z" transform="translate(-135.859 -33.473)" fill="#fff"/>
    <path id="Path_1559" data-name="Path 1559" d="M149.359,195.223a.75.75,0,0,1-.007-1.5h.007a.75.75,0,1,1,0,1.5Z" transform="translate(-135.859 -93.539)" fill="#fff"/>
    <path id="Path_1560" data-name="Path 1560" d="M149.359,162.191a.75.75,0,0,1-.007-1.5h.007a.75.75,0,1,1,0,1.5Z" transform="translate(-135.859 -63.507)" fill="#f2f2f6"/>
    <path id="Path_1561" data-name="Path 1561" d="M149.359,228.255a.75.75,0,0,1-.007-1.5h.007a.75.75,0,1,1,0,1.5Z" transform="translate(-135.859 -123.571)" fill="#f2f2f6"/>
    <path id="Path_1562" data-name="Path 1562" d="M198.988,129.158a.75.75,0,0,1-.007-1.5h.007a.75.75,0,1,1,0,1.5Z" transform="translate(-181.231 -33.473)" fill="#f2f2f6"/>
    <path id="Path_1563" data-name="Path 1563" d="M198.988,195.223a.75.75,0,0,1-.007-1.5h.007a.75.75,0,1,1,0,1.5Z" transform="translate(-181.231 -93.539)" fill="#f2f2f6"/>
    <path id="Path_1564" data-name="Path 1564" d="M198.988,162.191a.75.75,0,0,1-.007-1.5h.007a.75.75,0,1,1,0,1.5Z" transform="translate(-181.231 -63.507)" fill="#fff"/>
    <path id="Path_1565" data-name="Path 1565" d="M198.988,228.255a.75.75,0,0,1-.007-1.5h.007a.75.75,0,1,1,0,1.5Z" transform="translate(-181.231 -123.571)" fill="#fff"/>
    <path id="Path_1566" data-name="Path 1566" d="M3,329.831l1.483,1.239H46.727v-4.288H4.161Z" transform="translate(-2.727 -214.519)" fill="#f2f2f6"/>
    <path id="Path_1567" data-name="Path 1567" d="M0,326.782v4.288H1.841a4.486,4.486,0,0,1-.34-1.715v-2.573H0Z" transform="translate(0 -214.518)" fill="#e1e1e6"/>
  </g>
</svg>
