<svg xmlns="http://www.w3.org/2000/svg" width="11.949" height="11.949" viewBox="0 0 11.949 11.949">
  <path id="_5282544_camera_instagram_social_media_social_network_instagram_logo_icon" data-name="5282544_camera_instagram_social media_social network_instagram logo_icon" d="M10.489,0a1.461,1.461,0,0,1,1.46,1.46v9.029a1.461,1.461,0,0,1-1.46,1.46H1.46A1.461,1.461,0,0,1,0,10.489V1.46A1.461,1.461,0,0,1,1.46,0h9.029ZM5.974,1.89c-1.109,0-1.248,0-1.684.025A3,3,0,0,0,3.3,2.1,2.088,2.088,0,0,0,2.1,3.3a3,3,0,0,0-.19.991c-.02.436-.025.575-.025,1.684s0,1.248.025,1.684a3,3,0,0,0,.19.991A2.088,2.088,0,0,0,3.3,9.844a3,3,0,0,0,.991.19c.436.02.575.025,1.684.025s1.248,0,1.684-.025a3,3,0,0,0,.991-.19A2.088,2.088,0,0,0,9.844,8.65a3,3,0,0,0,.19-.991c.02-.436.025-.575.025-1.684s0-1.248-.025-1.684a3,3,0,0,0-.19-.991A2.088,2.088,0,0,0,8.65,2.1a3,3,0,0,0-.991-.19c-.436-.02-.575-.025-1.684-.025Zm0,.736c1.09,0,1.22,0,1.65.024a2.261,2.261,0,0,1,.758.141,1.353,1.353,0,0,1,.775.775,2.26,2.26,0,0,1,.141.758c.02.431.024.56.024,1.65s0,1.22-.024,1.65a2.26,2.26,0,0,1-.141.758,1.353,1.353,0,0,1-.775.775,2.26,2.26,0,0,1-.758.141c-.431.02-.56.024-1.65.024s-1.22,0-1.65-.024a2.26,2.26,0,0,1-.758-.141,1.353,1.353,0,0,1-.775-.775,2.26,2.26,0,0,1-.141-.758c-.02-.431-.024-.56-.024-1.65s0-1.22.024-1.65a2.26,2.26,0,0,1,.141-.758,1.353,1.353,0,0,1,.775-.775,2.261,2.261,0,0,1,.758-.141c.431-.02.56-.024,1.65-.024Zm0,1.251a2.1,2.1,0,1,0,2.1,2.1A2.1,2.1,0,0,0,5.974,3.877Zm0,3.459A1.361,1.361,0,1,1,7.336,5.974,1.361,1.361,0,0,1,5.974,7.336Zm2.67-3.541a.49.49,0,1,1-.49-.49.49.49,0,0,1,.49.49Z" transform="translate(0)" fill="#fff" fill-rule="evenodd"/>
</svg>
