<svg xmlns="http://www.w3.org/2000/svg" width="15.509" height="12.603" viewBox="0 0 15.509 12.603">
  <path id="_104501_twitter_bird_icon_1_" data-name="104501_twitter_bird_icon (1)" d="M19.083,11.818a6.331,6.331,0,0,1-1.828.5,3.187,3.187,0,0,0,1.4-1.76,6.369,6.369,0,0,1-2.02.773,3.184,3.184,0,0,0-5.421,2.9,9.034,9.034,0,0,1-6.559-3.324,3.186,3.186,0,0,0,.985,4.248,3.173,3.173,0,0,1-1.441-.4c0,.013,0,.027,0,.04a3.184,3.184,0,0,0,2.553,3.12,3.2,3.2,0,0,1-.838.111,3.153,3.153,0,0,1-.6-.057,3.185,3.185,0,0,0,2.972,2.21A6.42,6.42,0,0,1,3.574,21.5,9.049,9.049,0,0,0,17.5,13.877q0-.207-.009-.412A6.444,6.444,0,0,0,19.083,11.818Z" transform="translate(-3.574 -10.326)" fill="#e8d5ff"/>
</svg>
