<svg xmlns="http://www.w3.org/2000/svg" xmlns:xlink="http://www.w3.org/1999/xlink" width="1062" height="485" viewBox="0 0 1062 485">
  <defs>
    <clipPath id="clip-path">
      <rect id="Rectangle_5425" data-name="Rectangle 5425" width="1062" height="485" fill="none"/>
    </clipPath>
  </defs>
  <g id="Group_2619" data-name="Group 2619" transform="translate(0)" opacity="0.07">
    <g id="Group_2617" data-name="Group 2617" transform="translate(0)" clip-path="url(#clip-path)">
      <path id="Path_3514" data-name="Path 3514" d="M545.51,223.212l100.574-5.438-81.258-45.191-19.52,13.939-.006-1,19.229-13.733a.466.466,0,0,1,.49-.025l82.7,45.992a.382.382,0,0,1,.2.434.424.424,0,0,1-.394.3l-102.007,5.515Z" transform="translate(-590.981 -46.939)" fill="#c4c4c4"/>
      <path id="Path_3515" data-name="Path 3515" d="M549.693,318.331l52.2,27.474,39.42-9.659-91.7-32.2,0-.85,93.256,32.749a.4.4,0,0,1,.276.39.407.407,0,0,1-.319.363l-40.883,10.017a.465.465,0,0,1-.109.014.443.443,0,0,1-.217-.052L549.7,319.249Z" transform="translate(-594.13 43.684)" fill="#c4c4c4"/>
      <path id="Path_3516" data-name="Path 3516" d="M465.9,291.131a.463.463,0,0,0,.214-.054.4.4,0,0,0,.206-.264l4.44-19.672a.378.378,0,0,0-.074-.313.443.443,0,0,0-.3-.162L360.586,259a.419.419,0,0,0-.474.309.392.392,0,0,0,.289.461L465.764,291.11a.468.468,0,0,0,.136.02m3.917-19.726-4.245,18.815L364.8,260.244Z" transform="translate(-72.611 13.266)" fill="#c4c4c4"/>
      <path id="Path_3517" data-name="Path 3517" d="M213.718,456.447a.459.459,0,0,0,.23-.063l52.14-30.508a.389.389,0,0,0,.2-.324.379.379,0,0,0-.184-.333l-89.018-57.36a.46.46,0,0,0-.514.014.372.372,0,0,0-.138.451l36.88,87.868a.418.418,0,0,0,.269.235.466.466,0,0,0,.136.02m51.361-30.921L213.93,455.455l-36.179-86.2Z" transform="translate(470.316 88.307)" fill="#c4c4c4"/>
      <path id="Path_3518" data-name="Path 3518" d="M205.14,458.759h.005L363.2,456.447a.441.441,0,0,0,.35-.174.373.373,0,0,0,.046-.365l-36.878-87.867a.418.418,0,0,0-.293-.242.458.458,0,0,0-.383.074l-121.175,90.18a.378.378,0,0,0-.134.444.432.432,0,0,0,.409.26m157.425-3.1-156.183,2.285,119.742-89.114Z" transform="translate(320.842 88.306)" fill="#c4c4c4"/>
      <path id="Path_3519" data-name="Path 3519" d="M420.133,355.607a.467.467,0,0,0,.158-.029L603,288.3a.4.4,0,0,0,.267-.308.38.38,0,0,0-.153-.365l-92.5-69.922a.447.447,0,0,0-.348-.086.439.439,0,0,0-.3.186l-90.21,137.2a.374.374,0,0,0,.041.463.457.457,0,0,0,.332.139M602,287.812,421.168,354.4l89.283-135.793Z" transform="translate(-314.916 -15.276)" fill="#c4c4c4"/>
      <path id="Path_3520" data-name="Path 3520" d="M470.339,368.3a.444.444,0,0,0,.368-.193l90.21-137.2a.375.375,0,0,0,.042-.324.408.408,0,0,0-.238-.243L484.929,199.25a.476.476,0,0,0-.4.02.4.4,0,0,0-.21.311L469.906,367.87a.4.4,0,0,0,.3.409.529.529,0,0,0,.135.018m89.586-137.419L470.911,366.259,485.135,200.2Z" transform="translate(-365.122 -27.964)" fill="#c4c4c4"/>
      <path id="Path_3521" data-name="Path 3521" d="M560.178,368.5l.037,0a.413.413,0,0,0,.391-.363l14.415-168.289a.37.37,0,0,0-.111-.3.454.454,0,0,0-.315-.128l-63.115-.49a.625.625,0,0,0-.346.152.375.375,0,0,0-.076.345l48.7,168.779a.424.424,0,0,0,.42.3M574.123,200.2,559.944,365.745,512.037,199.723Z" transform="translate(-454.96 -28.165)" fill="#c4c4c4"/>
      <path id="Path_3522" data-name="Path 3522" d="M518.989,312.06l93.029,32.671,55.589-39.222L518.871,290.891l0-.8,149.9,14.736a.424.424,0,0,1,.37.286.379.379,0,0,1-.153.422L612.353,345.5a.467.467,0,0,1-.262.081.417.417,0,0,1-.157-.025l-92.94-32.639Z" transform="translate(-563.511 34.716)" fill="#c4c4c4"/>
      <path id="Path_3523" data-name="Path 3523" d="M574.592,222.511a.434.434,0,0,0,.4-.248.368.368,0,0,0-.1-.434L512.038,166.7a.461.461,0,0,0-.468-.079.4.4,0,0,0-.263.363l-.263,54.635a.413.413,0,0,0,.427.4l63.116.492Zm-62.425-54.6,61.336,53.8-61.594-.48Z" transform="translate(-454.96 -50.466)" fill="#c4c4c4"/>
      <path id="Path_3524" data-name="Path 3524" d="M545.455,224.057,647.861,269.52l.3-250.921L545,142.6l-.007-1.3L648.25,17.185a.456.456,0,0,1,.481-.137.406.406,0,0,1,.295.378l-.3,252.725a.39.39,0,0,1-.2.335.47.47,0,0,1-.418.022L545.46,224.943Z" transform="translate(-591.515 -153.628)" fill="#c4c4c4"/>
      <path id="Path_3525" data-name="Path 3525" d="M628.292,222.018a.457.457,0,0,0,.21-.051.4.4,0,0,0,.221-.343l.263-54.635a.38.38,0,0,0-.144-.3.462.462,0,0,0-.337-.1l-82.964,8.641a.422.422,0,0,0-.374.309.384.384,0,0,0,.2.424l82.7,45.992a.45.45,0,0,0,.227.057m-.172-54.586-.26,53.487L546.9,175.893Z" transform="translate(-571.776 -50.466)" fill="#c4c4c4"/>
      <path id="Path_3526" data-name="Path 3526" d="M545.339,172.2l19.874,21.666,81.25-8.464-101.3-44.969-.006-.884,103.028,45.736a.387.387,0,0,1,.238.424.418.418,0,0,1-.378.326l-82.964,8.641-.046,0a.448.448,0,0,1-.333-.142l-19.355-21.1Z" transform="translate(-591.217 -69.119)" fill="#c4c4c4"/>
      <path id="Path_3527" data-name="Path 3527" d="M466.628,455.769l-96.036,25.708-3.14.015,97.893-26.206L291.695,373.3l41.952,108.346-.916,0L290.516,372.627a.373.373,0,0,1,.122-.431.466.466,0,0,1,.483-.056l175.586,82.9a.393.393,0,0,1,.232.392.407.407,0,0,1-.31.341" transform="translate(59.473 91.28)" fill="#c4c4c4"/>
      <path id="Path_3528" data-name="Path 3528" d="M520.216,481.655l-42.055-108.61-113.87,50.677,140.274,58.006-2.082.01L363.093,424.1a.384.384,0,0,1-.011-.72l115.136-51.24a.475.475,0,0,1,.354-.01.422.422,0,0,1,.243.233l42.317,109.29Z" transform="translate(-128.012 91.28)" fill="#c4c4c4"/>
      <path id="Path_3529" data-name="Path 3529" d="M392.558,313.158a.452.452,0,0,0,.258-.079l50.41-34.822a.375.375,0,0,0,.12-.507.452.452,0,0,0-.529-.183L362.8,304.275a.4.4,0,0,0-.284.384.406.406,0,0,0,.308.368l29.613,8.116a.39.39,0,0,0,.125.015m47.836-33.939-47.923,33.105-28.152-7.715Z" transform="translate(-49.679 26.061)" fill="#c4c4c4"/>
      <path id="Path_3530" data-name="Path 3530" d="M388.286,317.837a.439.439,0,0,0,.146-.024l80.023-26.708a.387.387,0,0,0-.016-.75L363.076,259.014a.453.453,0,0,0-.448.1.371.371,0,0,0-.086.419l25.34,58.05a.438.438,0,0,0,.4.25m78.691-27.083-78.448,26.184-24.841-56.911Z" transform="translate(-75.019 13.266)" fill="#c4c4c4"/>
      <path id="Path_3531" data-name="Path 3531" d="M423.356,427.208a.38.38,0,0,0,.063-.005.406.406,0,0,0,.367-.414l-7.519-124.952a.406.406,0,0,0-.308-.358l-29.611-8.114a.457.457,0,0,0-.424.093.381.381,0,0,0-.12.385l37.13,133.066a.43.43,0,0,0,.422.3M415.421,302.16l7.257,120.634-35.846-128.47Z" transform="translate(-72.959 36.963)" fill="#c4c4c4"/>
      <path id="Path_3532" data-name="Path 3532" d="M406.379,327.064h.018l208.051-9.228a.442.442,0,0,0,.343-.182.369.369,0,0,0,.037-.362l-25.341-58.051a.414.414,0,0,0-.23-.216.467.467,0,0,0-.332,0L406.215,326.3a.391.391,0,0,0-.262.453.428.428,0,0,0,.426.311M613.8,317.071l-204.877,9.087,179.925-66.253Z" transform="translate(-301.161 13.267)" fill="#c4c4c4"/>
      <path id="Path_3533" data-name="Path 3533" d="M501.056,321.6a.5.5,0,0,0,.157-.029.4.4,0,0,0,.269-.318l21.331-151.422a.382.382,0,0,0-.214-.394.461.461,0,0,0-.481.032l-113.832,81.5a.377.377,0,0,0-.009.619l92.5,69.922a.469.469,0,0,0,.278.091m20.766-150.911-21.1,149.752-91.48-69.151Z" transform="translate(-213.129 -48.542)" fill="#c4c4c4"/>
      <path id="Path_3534" data-name="Path 3534" d="M408.554,268.331a.468.468,0,0,0,.265-.084l113.832-81.5a.382.382,0,0,0,.162-.36.4.4,0,0,0-.252-.314l-99.16-40.8a.464.464,0,0,0-.391.017.4.4,0,0,0-.216.3l-14.671,122.3a.392.392,0,0,0,.219.39.469.469,0,0,0,.212.051m113-81.8L409.1,267.043l14.492-120.829Z" transform="translate(-213.127 -65.199)" fill="#c4c4c4"/>
      <path id="Path_3535" data-name="Path 3535" d="M589.706,234.454a.318.318,0,0,0,.07-.005.415.415,0,0,0,.348-.3L637.452,53.917a.379.379,0,0,0-.057-.306.441.441,0,0,0-.28-.176l-200.344-36.4a.446.446,0,0,0-.442.167.369.369,0,0,0-.006.438L589.341,234.273a.435.435,0,0,0,.365.181M636.5,54.133,589.52,233.07,437.606,17.994Z" transform="translate(-379.608 -153.628)" fill="#c4c4c4"/>
      <path id="Path_3536" data-name="Path 3536" d="M538.17,268.331a.5.5,0,0,0,.212-.052.4.4,0,0,0,.215-.3l14.671-122.3a.393.393,0,0,0-.252-.406.464.464,0,0,0-.5.095l-90.466,91.216a.374.374,0,0,0-.1.348.4.4,0,0,0,.247.281l75.8,31.088a.467.467,0,0,0,.179.035M552.263,146.8,537.8,267.349l-74.708-30.642Z" transform="translate(-342.742 -65.198)" fill="#c4c4c4"/>
      <path id="Path_3537" data-name="Path 3537" d="M525.226,237.243h.013a.444.444,0,0,0,.3-.13L616.01,145.9a.369.369,0,0,0,.05-.471.449.449,0,0,0-.477-.179L462.266,181.337a.417.417,0,0,0-.311.284.379.379,0,0,0,.12.387l62.85,55.125a.463.463,0,0,0,.3.11m89.171-90.9L525.2,236.279l-61.97-54.351Z" transform="translate(-405.593 -65.198)" fill="#c4c4c4"/>
      <path id="Path_3538" data-name="Path 3538" d="M462.376,270.547a.554.554,0,0,0,.107-.012L615.8,234.444a.426.426,0,0,0,.295-.24.371.371,0,0,0-.041-.36L463.037,17.208a.452.452,0,0,0-.486-.164.4.4,0,0,0-.31.38l-.3,252.725a.392.392,0,0,0,.168.314.471.471,0,0,0,.267.083M615,233.812,462.807,269.638l.3-250.873Z" transform="translate(-405.595 -153.628)" fill="#c4c4c4"/>
      <path id="Path_3539" data-name="Path 3539" d="M580.867,427.208a.458.458,0,0,0,.313-.127.371.371,0,0,0,.1-.368l-37.13-133.066a.409.409,0,0,0-.267-.274.469.469,0,0,0-.4.044L385.978,393.2a.378.378,0,0,0-.177.409.416.416,0,0,0,.343.308L580.786,427.2a.619.619,0,0,0,.081.007m-37.4-132.814,36.808,131.913L387.325,393.313Z" transform="translate(-230.469 36.963)" fill="#c4c4c4"/>
      <path id="Path_3540" data-name="Path 3540" d="M465.729,437.717a.443.443,0,0,0,.186-.039l115.138-51.242a.391.391,0,0,0,.241-.411.416.416,0,0,0-.35-.336L386.3,352.407a.448.448,0,0,0-.453.193.367.367,0,0,0,.048.456l79.5,84.525a.44.44,0,0,0,.328.137m113.765-51.468L465.837,436.831l-78.481-83.438Z" transform="translate(-230.469 77.694)" fill="#c4c4c4"/>
      <path id="Path_3541" data-name="Path 3541" d="M456.917,393.925a.467.467,0,0,0,.245-.071l157.51-99.783a.376.376,0,0,0,.164-.453.449.449,0,0,0-.429-.27l-208.051,9.228a.444.444,0,0,0-.354.2.371.371,0,0,0-.011.38l50.539,90.555a.433.433,0,0,0,.28.2.458.458,0,0,0,.107.012m156.017-99.717L457.076,392.945l-50.009-89.606Z" transform="translate(-301.162 36.963)" fill="#c4c4c4"/>
      <path id="Path_3542" data-name="Path 3542" d="M474.305,455.263a.453.453,0,0,0,.142-.024l53.918-17.546a.406.406,0,0,0,.273-.27.372.372,0,0,0-.09-.362l-79.5-84.523a.459.459,0,0,0-.521-.1.386.386,0,0,0-.227.443l25.586,102.071a.4.4,0,0,0,.214.259.471.471,0,0,0,.21.049m53.176-18.122-52.866,17.2L449.529,354.267Z" transform="translate(-292.964 77.694)" fill="#c4c4c4"/>
      <path id="Path_3543" data-name="Path 3543" d="M607.111,455.263a.445.445,0,0,0,.323-.137.367.367,0,0,0,.1-.348L581.945,352.707a.417.417,0,0,0-.3-.291.467.467,0,0,0-.422.095l-103.542,91.67a.373.373,0,0,0-.107.416.428.428,0,0,0,.37.264l129.126,10.4.041,0M581.273,353.569l25.28,100.854L478.965,444.147Z" transform="translate(-425.769 77.694)" fill="#c4c4c4"/>
      <path id="Path_3544" data-name="Path 3544" d="M599.046,390.158a.449.449,0,0,0,.3-.117.373.373,0,0,0,.079-.461L548.89,299.025a.427.427,0,0,0-.289-.206.463.463,0,0,0-.359.073l-56.636,39.962a.383.383,0,0,0-.168.35.4.4,0,0,0,.232.316l107.177,50.594a.453.453,0,0,0,.2.044m-50.688-90.347,49.69,89.034L492.672,339.1Z" transform="translate(-443.29 40.73)" fill="#c4c4c4"/>
      <path id="Path_3545" data-name="Path 3545" d="M536.388,461.426a.453.453,0,0,0,.3-.112l103.54-91.669a.38.38,0,0,0,.12-.38.417.417,0,0,0-.3-.286L491.993,328.4a.457.457,0,0,0-.431.1.374.374,0,0,0-.107.4l44.516,132.246a.415.415,0,0,0,.306.265.494.494,0,0,0,.111.013m102.705-91.88L536.591,460.3,492.52,329.375Z" transform="translate(-484.172 61.131)" fill="#c4c4c4"/>
      <path id="Path_3546" data-name="Path 3546" d="M639.927,373.846a.435.435,0,0,0,.4-.248.382.382,0,0,0-.2-.5L532.948,322.5a.463.463,0,0,0-.31-.03l-40.881,10.017a.388.388,0,0,0-.013.762L639.8,373.829a.457.457,0,0,0,.125.017M532.7,323.277l102.882,48.568L493.456,332.893Z" transform="translate(-484.172 57.042)" fill="#c4c4c4"/>
      <path id="Path_3547" data-name="Path 3547" d="M292.81,409.936a.433.433,0,0,0,.4-.26.379.379,0,0,0-.186-.478L170.415,343.348a.477.477,0,0,0-.33-.042.436.436,0,0,0-.265.189l-25.355,41.387a.361.361,0,0,0-.015.363.429.429,0,0,0,.315.221l147.968,24.462a.591.591,0,0,0,.077.007m-122.452-65.7,120.131,64.516L145.515,384.786Z" transform="translate(502.314 71.413)" fill="#c4c4c4"/>
      <path id="Path_3548" data-name="Path 3548" d="M261.735,391.105l.037,0a.442.442,0,0,0,.337-.2l25.357-41.387a.369.369,0,0,0,.015-.36.428.428,0,0,0-.308-.225l-75.7-13.8a.45.45,0,0,0-.455.188.369.369,0,0,0,.04.456L261.4,390.964a.445.445,0,0,0,.333.142m24.685-41.5-24.758,40.41-49.152-53.881Z" transform="translate(385.422 65.781)" fill="#c4c4c4"/>
      <path id="Path_3549" data-name="Path 3549" d="M365.195,237.848a.463.463,0,0,0,.107-.013.394.394,0,0,0,.31-.483l-23.78-84a.432.432,0,0,0-.525-.284.4.4,0,0,0-.309.483l23.778,84a.428.428,0,0,0,.42.3" transform="translate(67.76 -59.804)" fill="#c4c4c4"/>
      <path id="Path_3550" data-name="Path 3550" d="M465.112,237.848a.457.457,0,0,0,.271-.09.373.373,0,0,0,.146-.407l-23.778-84a.41.41,0,0,0-.206-.247.475.475,0,0,0-.337-.034L341.289,180.66a.4.4,0,0,0-.306.345.39.39,0,0,0,.239.389l123.7,56.412a.459.459,0,0,0,.193.042m-24.086-83.9,23.428,82.757L342.585,181.13Z" transform="translate(-32.158 -59.804)" fill="#c4c4c4"/>
      <path id="Path_3551" data-name="Path 3551" d="M451.218,310.239a.428.428,0,0,0,.411-.282L486.857,203.28a.378.378,0,0,0-.162-.438.46.46,0,0,0-.5,0L341.163,297.849a.38.38,0,0,0-.168.421.42.42,0,0,0,.369.3l109.8,11.669.052,0m34.444-106.076L450.906,309.409,342.58,297.9Z" transform="translate(-53.491 -25.516)" fill="#c4c4c4"/>
      <path id="Path_3552" data-name="Path 3552" d="M341.416,321.595a.461.461,0,0,0,.249-.073l145.029-95.008a.38.38,0,0,0-.059-.678l-123.7-56.414a.455.455,0,0,0-.394.007.394.394,0,0,0-.225.3L340.985,321.147a.387.387,0,0,0,.208.392.467.467,0,0,0,.223.056m144.189-95.344-143.635,94.1L363.1,170.383Z" transform="translate(-53.489 -48.543)" fill="#c4c4c4"/>
      <path id="Path_3553" data-name="Path 3553" d="M399.483,341.41a.452.452,0,0,0,.319-.13.375.375,0,0,0,0-.536l-75.469-74.717a.453.453,0,0,0-.433-.113.412.412,0,0,0-.308.3l-4.438,19.672a.383.383,0,0,0,.162.4l79.909,55.043a.455.455,0,0,0,.262.079m-75.218-74.28L395.9,338.049,320.051,285.8Z" transform="translate(73.713 18.03)" fill="#c4c4c4"/>
      <path id="Path_3554" data-name="Path 3554" d="M449.891,333.378a.43.43,0,0,0,.4-.238.377.377,0,0,0-.138-.475l-79.907-55.043a.469.469,0,0,0-.52,0l-50.41,34.824a.381.381,0,0,0-.16.411.417.417,0,0,0,.348.3l130.318,20.219a.277.277,0,0,0,.074.005m-79.909-54.944,78.225,53.884L320.633,312.524Z" transform="translate(23.305 26.061)" fill="#c4c4c4"/>
      <path id="Path_3555" data-name="Path 3555" d="M327.091,423.894a.459.459,0,0,0,.293-.1l122.8-104.73a.378.378,0,0,0,.12-.4.423.423,0,0,0-.343-.277L319.644,298.156a.461.461,0,0,0-.361.095.377.377,0,0,0-.142.318l7.517,124.952a.4.4,0,0,0,.269.345.432.432,0,0,0,.164.029M448.954,319.025,327.471,422.632l-7.438-123.61Z" transform="translate(23.304 40.275)" fill="#c4c4c4"/>
      <path id="Path_3556" data-name="Path 3556" d="M519.1,280.891l149.562,86.338L620.373,199.865l-101.5,39.327,0-.86,101.628-39.376a.473.473,0,0,1,.359.01.4.4,0,0,1,.227.255L669.781,368a.38.38,0,0,1-.162.421.45.45,0,0,1-.254.076.442.442,0,0,1-.232-.061l-150.024-86.6Z" transform="translate(-564.148 -28.165)" fill="#c4c4c4"/>
      <path id="Path_3557" data-name="Path 3557" d="M519.268,319.513l148.049,14.55-148.445-85.69-.005-.939,150.492,86.871a.382.382,0,0,1,.177.466.433.433,0,0,1-.405.267l-.048,0-149.81-14.724Z" transform="translate(-563.912 5.294)" fill="#c4c4c4"/>
      <path id="Path_3558" data-name="Path 3558" d="M545.487,238.332,644.8,199.853l-99.5,5.38,0-.794,101.959-5.512a.4.4,0,0,1,.446.3.389.389,0,0,1-.252.456l-101.959,39.5Z" transform="translate(-590.768 -28.165)" fill="#c4c4c4"/>
      <path id="Path_3559" data-name="Path 3559" d="M375,391.236a.445.445,0,0,0,.348-.164.373.373,0,0,0-.018-.488L324.988,335.4a.446.446,0,0,0-.33-.142l-99.505-.321h0a.425.425,0,0,0-.422.321.393.393,0,0,0,.263.444l149.845,55.5a.466.466,0,0,0,.164.029m-50.547-55.184,49.1,53.825L227.4,335.74Z" transform="translate(272.156 65.65)" fill="#c4c4c4"/>
      <path id="Path_3560" data-name="Path 3560" d="M253.826,481.414a.454.454,0,0,0,.269-.088l121.175-90.18a.379.379,0,0,0,.155-.367.4.4,0,0,0-.265-.309l-149.847-55.5a.474.474,0,0,0-.435.059.381.381,0,0,0-.151.379L253.4,481.088a.405.405,0,0,0,.273.3.536.536,0,0,0,.155.024m120.33-90.461L254.119,480.287l-28.4-144.314Z" transform="translate(272.157 65.65)" fill="#c4c4c4"/>
      <path id="Path_3561" data-name="Path 3561" d="M376.1,353.173a.424.424,0,0,0,.424-.326.391.391,0,0,0-.274-.443L252.626,310.142a.462.462,0,0,0-.475.11.375.375,0,0,0-.057.448l24.113,41.941a.436.436,0,0,0,.381.211l99.5.321ZM253.387,311.249l120.286,41.123-96.822-.311Z" transform="translate(220.719 48.53)" fill="#c4c4c4"/>
      <path id="Path_3562" data-name="Path 3562" d="M466.509,481.414a.439.439,0,0,0,.254-.078.38.38,0,0,0,.17-.389L438.261,335.265a.4.4,0,0,0-.227-.282.475.475,0,0,0-.381-.007L290.739,397.763a.4.4,0,0,0-.249.351.388.388,0,0,0,.234.36l175.584,82.9a.467.467,0,0,0,.2.044m-29-145.5L465.927,480.3,291.9,398.14Z" transform="translate(59.472 65.65)" fill="#c4c4c4"/>
      <path id="Path_3563" data-name="Path 3563" d="M306.486,415.641a.447.447,0,0,0,.18-.037L453.58,352.815a.4.4,0,0,0,.227-.231.362.362,0,0,0-.028-.311L429.666,310.33a.428.428,0,0,0-.31-.206.463.463,0,0,0-.367.1l-122.8,104.731a.375.375,0,0,0-.065.512.448.448,0,0,0,.361.176M452.8,352.272,308.785,413.823l120.38-102.666Z" transform="translate(43.912 48.53)" fill="#c4c4c4"/>
      <path id="Path_3564" data-name="Path 3564" d="M572.047,357.31l50.867-17.377-51.114-26.9,0-.918,52.349,27.555a.391.391,0,0,1,.216.377.4.4,0,0,1-.28.34l-52.028,17.773Z" transform="translate(-616.232 49.905)" fill="#c4c4c4"/>
      <path id="Path_3565" data-name="Path 3565" d="M454.166,178.847a.443.443,0,0,0,.357-.176.377.377,0,0,0-.12-.551l-99.842-61.24a.456.456,0,0,0-.6.11.374.374,0,0,0,.118.549l99.842,61.24a.455.455,0,0,0,.243.068" transform="translate(-44.99 -84.801)" fill="#c4c4c4"/>
      <path id="Path_3566" data-name="Path 3566" d="M354.321,206.433a.5.5,0,0,0,.124-.015l99.918-27.588a.406.406,0,0,0,.3-.321.383.383,0,0,0-.188-.387l-99.842-61.24a.461.461,0,0,0-.444-.02.392.392,0,0,0-.229.348l-.074,88.828a.382.382,0,0,0,.173.318.444.444,0,0,0,.26.078m98.914-28.121L354.753,205.5l.074-87.553Z" transform="translate(-45.063 -84.801)" fill="#c4c4c4"/>
      <path id="Path_3567" data-name="Path 3567" d="M507.675,206.435a.468.468,0,0,0,.232-.064.387.387,0,0,0,.2-.333l.075-88.827a.389.389,0,0,0-.21-.34.462.462,0,0,0-.426-.012L408.31,164.882a.393.393,0,0,0-.23.363.4.4,0,0,0,.254.35l99.16,40.8a.483.483,0,0,0,.181.036m-.361-88.566-.074,87.558L409.5,165.205Z" transform="translate(-198.414 -84.801)" fill="#c4c4c4"/>
      <path id="Path_3568" data-name="Path 3568" d="M408.514,219.6a.469.469,0,0,0,.2-.046l99.234-48.023a.384.384,0,0,0,.206-.485L456.247,38.832a.445.445,0,0,0-.827.042L408.092,219.108a.379.379,0,0,0,.155.407.476.476,0,0,0,.267.083m98.7-48.609-98.057,47.451L455.921,40.346Z" transform="translate(-198.416 -138.77)" fill="#c4c4c4"/>
      <path id="Path_3569" data-name="Path 3569" d="M547.7,401.056l95.317,59.014L599.109,329.629l-51.468,60.736-.007-1.284,51.3-60.54a.446.446,0,0,1,.418-.147.418.418,0,0,1,.335.272l44.516,132.246a.378.378,0,0,1-.155.436.466.466,0,0,1-.5.01l-95.846-59.342Z" transform="translate(-591.579 61.131)" fill="#c4c4c4"/>
      <path id="Path_3570" data-name="Path 3570" d="M548.088,452.748,642.681,431.2,547.64,372.354l-.006-.962,96.336,59.645a.385.385,0,0,1,.184.4.418.418,0,0,1-.322.316l-95.739,21.811Z" transform="translate(-591.515 90.794)" fill="#c4c4c4"/>
      <path id="Path_3571" data-name="Path 3571" d="M572.036,389.081,622.4,329.643l-50.6,17.284-.006-.843,51.731-17.673a.458.458,0,0,1,.5.137.37.37,0,0,1-.006.478l-51.978,61.34Z" transform="translate(-615.984 61.131)" fill="#c4c4c4"/>
      <path id="Path_3572" data-name="Path 3572" d="M472.73,214.739a5.272,5.272,0,1,1-5.7,5.279,5.51,5.51,0,0,1,5.7-5.279" transform="translate(-277.334 -17.257)" fill="#c4c4c4"/>
      <path id="Path_3573" data-name="Path 3573" d="M473.52,215.388a5.272,5.272,0,1,0,5.756,5.225,5.5,5.5,0,0,0-5.756-5.225m-.009-1.587c4.112-.019,7.475,3.033,7.495,6.8s-3.307,6.854-7.419,6.872-7.473-3.031-7.495-6.8,3.307-6.855,7.419-6.874" transform="translate(-278.125 -17.904)" fill="#231f20"/>
      <path id="Path_3574" data-name="Path 3574" d="M509.947,200.38a2.461,2.461,0,1,1,2.465,2.237,2.355,2.355,0,0,1-2.465-2.237" transform="translate(-392.77 -28.721)" fill="#c4c4c4"/>
      <path id="Path_3575" data-name="Path 3575" d="M513.177,198.767A2.258,2.258,0,1,0,515.642,201a2.352,2.352,0,0,0-2.465-2.237m-.009-1.587a3.849,3.849,0,1,1-4.16,3.854,4.028,4.028,0,0,1,4.16-3.854" transform="translate(-393.559 -29.369)" fill="#231f20"/>
      <path id="Path_3576" data-name="Path 3576" d="M548,174.115a5.2,5.2,0,1,1,5.614-5.2,5.428,5.428,0,0,1-5.614,5.2" transform="translate(-491.19 -52.417)" fill="#c4c4c4"/>
      <path id="Path_3577" data-name="Path 3577" d="M548.733,164.413a5.194,5.194,0,1,0,5.671,5.149,5.417,5.417,0,0,0-5.671-5.149m-.009-1.587c4.066-.019,7.39,3,7.41,6.727s-3.27,6.778-7.335,6.8-7.39-3-7.41-6.727,3.269-6.778,7.335-6.8" transform="translate(-491.981 -53.064)" fill="#231f20"/>
      <path id="Path_3578" data-name="Path 3578" d="M408.484,290.815a4.694,4.694,0,1,1-5.072,4.7,4.905,4.905,0,0,1,5.072-4.7" transform="translate(-95.244 35.216)" fill="#c4c4c4"/>
      <path id="Path_3579" data-name="Path 3579" d="M409.275,291.464a4.693,4.693,0,1,0,5.124,4.652,4.9,4.9,0,0,0-5.124-4.652m-.009-1.587a6.286,6.286,0,1,1-6.793,6.294,6.577,6.577,0,0,1,6.793-6.294" transform="translate(-96.035 34.569)" fill="#231f20"/>
      <path id="Path_3580" data-name="Path 3580" d="M493.109,350.909a2.927,2.927,0,1,1-3.163,2.93,3.058,3.058,0,0,1,3.163-2.93" transform="translate(-337.372 76.665)" fill="#c4c4c4"/>
      <path id="Path_3581" data-name="Path 3581" d="M493.9,351.558a2.926,2.926,0,1,0,3.195,2.9,3.052,3.052,0,0,0-3.195-2.9m-.009-1.587a4.518,4.518,0,1,1-4.883,4.525,4.728,4.728,0,0,1,4.883-4.525" transform="translate(-338.16 76.018)" fill="#231f20"/>
      <path id="Path_3582" data-name="Path 3582" d="M552.624,319.353a5.665,5.665,0,1,1-6.122,5.672,5.921,5.921,0,0,1,6.122-5.672" transform="translate(-504.077 54.9)" fill="#c4c4c4"/>
      <path id="Path_3583" data-name="Path 3583" d="M553.415,320a5.665,5.665,0,1,0,6.185,5.613A5.907,5.907,0,0,0,553.415,320m-.009-1.588c4.346-.019,7.9,3.209,7.924,7.195s-3.5,7.247-7.843,7.268-7.9-3.207-7.924-7.195,3.5-7.247,7.843-7.268" transform="translate(-504.868 54.252)" fill="#231f20"/>
      <path id="Path_3584" data-name="Path 3584" d="M145.788,381.124a2.33,2.33,0,1,1-2.519,2.333,2.436,2.436,0,0,1,2.519-2.333" transform="translate(649.323 97.506)" fill="#c4c4c4"/>
      <path id="Path_3585" data-name="Path 3585" d="M146.58,381.772a2.33,2.33,0,1,0,2.544,2.308,2.431,2.431,0,0,0-2.544-2.308m-.009-1.587a3.922,3.922,0,1,1-4.239,3.927,4.1,4.1,0,0,1,4.239-3.927" transform="translate(648.531 96.858)" fill="#231f20"/>
      <path id="Path_3586" data-name="Path 3586" d="M213.043,341.306a3.768,3.768,0,1,1-4.072,3.773,3.938,3.938,0,0,1,4.072-3.773" transform="translate(459.447 70.042)" fill="#c4c4c4"/>
      <path id="Path_3587" data-name="Path 3587" d="M213.835,341.954a3.768,3.768,0,1,0,4.114,3.734,3.932,3.932,0,0,0-4.114-3.734m-.009-1.587a5.36,5.36,0,1,1-5.793,5.367,5.607,5.607,0,0,1,5.793-5.367" transform="translate(458.655 69.394)" fill="#231f20"/>
      <path id="Path_3588" data-name="Path 3588" d="M342.335,201.66a2.275,2.275,0,1,1-2.46,2.278,2.379,2.379,0,0,1,2.46-2.278" transform="translate(90.605 -26.279)" fill="#c4c4c4"/>
      <path id="Path_3589" data-name="Path 3589" d="M343.124,202.309a2.274,2.274,0,1,0,2.484,2.254,2.372,2.372,0,0,0-2.484-2.254m-.009-1.588a3.868,3.868,0,1,1-4.178,3.875,4.049,4.049,0,0,1,4.178-3.875" transform="translate(89.818 -26.926)" fill="#231f20"/>
      <path id="Path_3590" data-name="Path 3590" d="M422.481,256.17a5.187,5.187,0,1,1-5.6,5.193,5.419,5.419,0,0,1,5.6-5.193" transform="translate(-134.585 11.319)" fill="#c4c4c4"/>
      <path id="Path_3591" data-name="Path 3591" d="M423.272,256.818a5.186,5.186,0,1,0,5.662,5.14,5.407,5.407,0,0,0-5.662-5.14m-.009-1.587c4.061-.019,7.381,2.994,7.4,6.718s-3.267,6.769-7.325,6.788-7.381-3-7.4-6.718,3.265-6.769,7.325-6.788" transform="translate(-135.376 10.672)" fill="#231f20"/>
      <path id="Path_3592" data-name="Path 3592" d="M361.635,269.764a2.587,2.587,0,1,1,2.8-2.59,2.7,2.7,0,0,1-2.8,2.59" transform="translate(36.105 17.14)" fill="#c4c4c4"/>
      <path id="Path_3593" data-name="Path 3593" d="M362.4,265.257a2.587,2.587,0,1,0,2.824,2.563,2.7,2.7,0,0,0-2.824-2.563m-.009-1.587a4.179,4.179,0,1,1-4.518,4.185,4.374,4.374,0,0,1,4.518-4.185" transform="translate(35.314 16.493)" fill="#231f20"/>
      <path id="Path_3594" data-name="Path 3594" d="M364.182,276.052a2.925,2.925,0,1,1-3.16,2.928,3.057,3.057,0,0,1,3.16-2.928" transform="translate(29.089 25.033)" fill="#c4c4c4"/>
      <path id="Path_3595" data-name="Path 3595" d="M364.973,276.7a2.924,2.924,0,1,0,3.193,2.9,3.05,3.05,0,0,0-3.193-2.9m-.009-1.587a4.517,4.517,0,1,1-4.88,4.522,4.728,4.728,0,0,1,4.88-4.522" transform="translate(28.298 24.386)" fill="#231f20"/>
      <path id="Path_3596" data-name="Path 3596" d="M391.231,297.036a2.289,2.289,0,1,1-2.474,2.293,2.394,2.394,0,0,1,2.474-2.293" transform="translate(-48.367 39.507)" fill="#c4c4c4"/>
      <path id="Path_3597" data-name="Path 3597" d="M392.023,297.684a2.289,2.289,0,1,0,2.5,2.268,2.386,2.386,0,0,0-2.5-2.268m-.009-1.587a3.881,3.881,0,1,1-4.2,3.886,4.063,4.063,0,0,1,4.2-3.886" transform="translate(-49.159 38.859)" fill="#231f20"/>
      <path id="Path_3598" data-name="Path 3598" d="M521.058,296.7a3.98,3.98,0,1,1-4.3,3.986,4.159,4.159,0,0,1,4.3-3.986" transform="translate(-415.865 39.273)" fill="#c4c4c4"/>
      <path id="Path_3599" data-name="Path 3599" d="M521.845,297.346a3.98,3.98,0,1,0,4.346,3.944,4.15,4.15,0,0,0-4.346-3.944m-.009-1.588a5.572,5.572,0,1,1-6.019,5.581,5.832,5.832,0,0,1,6.019-5.581" transform="translate(-416.653 38.625)" fill="#231f20"/>
      <path id="Path_3600" data-name="Path 3600" d="M547.78,196.462a4.575,4.575,0,1,1-4.943,4.581,4.782,4.782,0,0,1,4.943-4.581" transform="translate(-491.29 -29.864)" fill="#c4c4c4"/>
      <path id="Path_3601" data-name="Path 3601" d="M548.571,197.111a4.574,4.574,0,1,0,4.995,4.534,4.772,4.772,0,0,0-4.995-4.534m-.009-1.587A6.167,6.167,0,1,1,541.9,201.7a6.456,6.456,0,0,1,6.664-6.174" transform="translate(-492.081 -30.511)" fill="#231f20"/>
      <path id="Path_3602" data-name="Path 3602" d="M227.391,365.1a4.961,4.961,0,1,1-5.361,4.968,5.187,5.187,0,0,1,5.361-4.968" transform="translate(419.736 86.451)" fill="#c4c4c4"/>
      <path id="Path_3603" data-name="Path 3603" d="M228.183,365.744a4.96,4.96,0,1,0,5.417,4.917,5.172,5.172,0,0,0-5.417-4.917m-.009-1.587c3.924-.019,7.134,2.9,7.154,6.5s-3.156,6.543-7.082,6.561-7.134-2.895-7.154-6.5,3.158-6.543,7.082-6.561" transform="translate(418.944 85.803)" fill="#231f20"/>
      <path id="Path_3604" data-name="Path 3604" d="M250.6,336.54a3.115,3.115,0,1,1,3.119,2.832,2.98,2.98,0,0,1-3.119-2.832" transform="translate(343.113 64.781)" fill="#c4c4c4"/>
      <path id="Path_3605" data-name="Path 3605" d="M254.475,334.327a2.857,2.857,0,1,0,3.119,2.83,2.979,2.979,0,0,0-3.119-2.83m-.009-1.587a4.449,4.449,0,1,1-4.809,4.454,4.655,4.655,0,0,1,4.809-4.454" transform="translate(342.322 64.133)" fill="#231f20"/>
      <path id="Path_3606" data-name="Path 3606" d="M308.592,332.406a4.694,4.694,0,1,1-5.072,4.7,4.906,4.906,0,0,1,5.072-4.7" transform="translate(188.69 63.903)" fill="#c4c4c4"/>
      <path id="Path_3607" data-name="Path 3607" d="M309.381,333.055a4.693,4.693,0,1,0,5.124,4.652,4.894,4.894,0,0,0-5.124-4.652m-.009-1.587a6.286,6.286,0,1,1-6.791,6.294,6.578,6.578,0,0,1,6.791-6.294" transform="translate(187.901 63.256)" fill="#231f20"/>
      <path id="Path_3608" data-name="Path 3608" d="M388.038,369.918a4.094,4.094,0,1,1-4.425,4.1,4.279,4.279,0,0,1,4.425-4.1" transform="translate(-37.667 89.777)" fill="#c4c4c4"/>
      <path id="Path_3609" data-name="Path 3609" d="M388.828,370.567a4.094,4.094,0,1,0,4.47,4.057,4.27,4.27,0,0,0-4.47-4.057m-.009-1.588a5.687,5.687,0,1,1-6.145,5.7,5.954,5.954,0,0,1,6.145-5.7" transform="translate(-38.456 89.129)" fill="#231f20"/>
      <path id="Path_3610" data-name="Path 3610" d="M320.851,308.58a3.006,3.006,0,1,1-3.248,3.01,3.142,3.142,0,0,1,3.248-3.01" transform="translate(152.327 47.469)" fill="#c4c4c4"/>
      <path id="Path_3611" data-name="Path 3611" d="M321.643,309.229a3,3,0,1,0,3.281,2.977,3.134,3.134,0,0,0-3.281-2.977m-.009-1.587a4.6,4.6,0,1,1-4.969,4.6,4.809,4.809,0,0,1,4.969-4.6" transform="translate(151.535 46.822)" fill="#231f20"/>
      <path id="Path_3612" data-name="Path 3612" d="M355.89,151.171a3.595,3.595,0,1,1-3.886,3.6,3.757,3.757,0,0,1,3.886-3.6" transform="translate(53.264 -61.103)" fill="#c4c4c4"/>
      <path id="Path_3613" data-name="Path 3613" d="M356.681,151.819a3.594,3.594,0,1,0,3.924,3.562,3.749,3.749,0,0,0-3.924-3.562m-.009-1.587a5.187,5.187,0,1,1-5.606,5.194,5.429,5.429,0,0,1,5.606-5.194" transform="translate(52.473 -61.751)" fill="#231f20"/>
      <path id="Path_3614" data-name="Path 3614" d="M409.666,168.042a2.67,2.67,0,1,1-2.885,2.673,2.791,2.791,0,0,1,2.885-2.673" transform="translate(-100.425 -49.466)" fill="#c4c4c4"/>
      <path id="Path_3615" data-name="Path 3615" d="M410.457,168.691a2.67,2.67,0,1,0,2.915,2.646,2.783,2.783,0,0,0-2.915-2.646m-.009-1.587a4.262,4.262,0,1,1-4.606,4.268,4.46,4.46,0,0,1,4.606-4.268" transform="translate(-101.216 -50.113)" fill="#231f20"/>
      <path id="Path_3616" data-name="Path 3616" d="M411.2,125.111a5.747,5.747,0,1,1,6.211-5.755,6.009,6.009,0,0,1-6.211,5.755" transform="translate(-101.838 -86.976)" fill="#c4c4c4"/>
      <path id="Path_3617" data-name="Path 3617" d="M411.929,114.308A5.747,5.747,0,1,0,418.2,120a6,6,0,0,0-6.275-5.7m-.009-1.587c4.4-.02,7.991,3.243,8.013,7.274s-3.536,7.328-7.932,7.35-7.991-3.244-8.013-7.276,3.535-7.328,7.931-7.349" transform="translate(-102.63 -87.624)" fill="#231f20"/>
      <path id="Path_3618" data-name="Path 3618" d="M463.618,143.739a2.933,2.933,0,1,1-3.171,2.937,3.067,3.067,0,0,1,3.171-2.937" transform="translate(-253.538 -66.229)" fill="#c4c4c4"/>
      <path id="Path_3619" data-name="Path 3619" d="M464.408,144.387a2.933,2.933,0,1,0,3.2,2.906,3.058,3.058,0,0,0-3.2-2.906M464.4,142.8a4.525,4.525,0,1,1-4.892,4.532A4.736,4.736,0,0,1,464.4,142.8" transform="translate(-254.327 -66.877)" fill="#231f20"/>
      <path id="Path_3620" data-name="Path 3620" d="M573.9,326.386a3.793,3.793,0,1,1-4.1,3.8,3.964,3.964,0,0,1,4.1-3.8" transform="translate(-566.22 59.751)" fill="#c4c4c4"/>
      <path id="Path_3621" data-name="Path 3621" d="M574.685,327.034a3.792,3.792,0,1,0,4.14,3.758,3.956,3.956,0,0,0-4.14-3.758m-.009-1.587a5.384,5.384,0,1,1-5.819,5.392,5.634,5.634,0,0,1,5.819-5.392" transform="translate(-567.009 59.103)" fill="#231f20"/>
    </g>
  </g>
</svg>
