<svg xmlns="http://www.w3.org/2000/svg" width="529.898" height="318.753" viewBox="0 0 529.898 318.753">
  <path id="Path_1448" data-name="Path 1448" d="M591.668,3.266A152.18,152.18,0,0,0,559.48,0h-.69c-3.61,0-7.221.172-11.013.517a157.072,157.072,0,0,0-44.063,9.462,36.947,36.947,0,0,0-6.024,2.413.634.634,0,0,0-.517.172A164.2,164.2,0,0,0,453.629,40.27V40.1l-.172-.172A158.637,158.637,0,0,0,399.415,155.24a52.389,52.389,0,0,1,.517,7.575v.517c0,1.9,0,3.62-.172,5.507a50.039,50.039,0,0,1-7.4,24.268,22.592,22.592,0,0,1-2.231,3.275,49.795,49.795,0,0,1-17.046,15.141c-46.467,24.44-93.45-14.452-84.333-60.238a56.2,56.2,0,0,1,45.442-43.718,55,55,0,0,1,46.639,13.254,180.558,180.558,0,0,1,51.293-96.553A157,157,0,0,0,347.95.172,159.2,159.2,0,0,0,228.336,54.214C197.7,88.978,184.1,133.9,189.952,180.369c10.152,80.205,76.767,138.384,158,138.384,35.807,0,66.1-9.807,90.021-28.912a46.976,46.976,0,0,0,5.679-4.482l.345-.345a86.93,86.93,0,0,0,8.092-7.738c24.957-25.991,41.477-64.03,48.707-112.91,4.817-31.67,26.163-57.144,57.652-57.661,32.532-.517,59.212,27.887,59.212,60.592V317.374H669.8a48.776,48.776,0,0,0,48.716-48.707V159.376c0-76.767-54.568-140.96-126.853-156.11" transform="translate(-188.623)" fill="#ff9133"/>
</svg>
