<svg xmlns="http://www.w3.org/2000/svg" width="498.732" height="300.005" viewBox="0 0 498.732 300.005">
  <path id="Path_2536" data-name="Path 2536" d="M567.963,3.074A143.229,143.229,0,0,0,537.669,0h-.649c-3.4,0-6.8.162-10.365.487a147.834,147.834,0,0,0-41.471,8.906,34.772,34.772,0,0,0-5.67,2.271.6.6,0,0,0-.487.162A154.541,154.541,0,0,0,438.043,37.9V37.74l-.162-.162a149.306,149.306,0,0,0-50.863,108.532,49.305,49.305,0,0,1,.487,7.13v.487c0,1.785,0,3.407-.162,5.183a47.1,47.1,0,0,1-6.968,22.84,21.264,21.264,0,0,1-2.1,3.082,46.865,46.865,0,0,1-16.044,14.251c-43.734,23-87.954-13.6-79.373-56.695a52.9,52.9,0,0,1,42.769-41.147,51.77,51.77,0,0,1,43.9,12.475A169.938,169.938,0,0,1,417.8,22.84,147.762,147.762,0,0,0,338.579.162,149.835,149.835,0,0,0,226,51.025c-28.835,32.719-41.634,75-36.126,118.735,9.555,75.488,72.252,130.245,148.705,130.245,33.7,0,62.211-9.23,84.726-27.212a44.215,44.215,0,0,0,5.345-4.218l.325-.324a81.831,81.831,0,0,0,7.616-7.283C460.08,236.505,475.629,200.7,482.434,154.7c4.534-29.808,24.625-53.783,54.262-54.27,30.619-.487,55.73,26.247,55.73,57.028V298.707H641.5a45.907,45.907,0,0,0,45.851-45.843V150c0-72.252-51.358-132.67-119.393-146.929" transform="translate(-188.623)" fill="#f9e9dc" opacity="0.42"/>
</svg>
