<svg xmlns="http://www.w3.org/2000/svg" width="933.671" height="941.816" viewBox="0 0 933.671 941.816">
  <path id="Path_1677" data-name="Path 1677" d="M629.926,493.08a237.846,237.846,0,0,1-50.306,5.1h-1.078c-5.643,0-11.286-.269-17.213-.808a245.488,245.488,0,0,1-68.866-14.788,57.743,57.743,0,0,1-9.415-3.772.99.99,0,0,1-.808-.269,256.624,256.624,0,0,1-68.058-43.3v.269l-.269.269A247.936,247.936,0,0,1,329.45,255.558a81.878,81.878,0,0,0,.808-11.839v-.808c0-2.963,0-5.657-.269-8.606a78.207,78.207,0,0,0-11.57-37.928,35.31,35.31,0,0,0-3.487-5.118,77.824,77.824,0,0,0-26.642-23.664c-72.623-38.2-146.055,22.587-131.806,94.147A87.837,87.837,0,0,0,227.5,330.067,85.968,85.968,0,0,0,300.4,309.352a282.2,282.2,0,0,0,80.167,150.9c-39.006,24.756-84.732,37.659-131.55,37.659A248.814,248.814,0,0,1,62.067,413.452C14.185,359.119-7.069,288.906,2.076,216.283,17.943,90.928,122.057,0,249.014,0c55.963,0,103.306,15.327,140.7,45.188,3.219,1.886,5.913,4.58,8.876,7l.539.539a135.882,135.882,0,0,1,12.647,12.094C450.777,105.447,476.6,164.9,487.9,241.294c7.529,49.5,40.891,89.312,90.106,90.12,50.845.808,92.544-43.585,92.544-94.7V2.155h81.5a76.233,76.233,0,0,1,76.14,76.126V249.092c0,119.981-85.285,220.309-198.262,243.988" transform="matrix(0.695, -0.719, 0.719, 0.695, 0, 595.748)" fill="#f5f1fa"/>
</svg>
