<svg xmlns="http://www.w3.org/2000/svg" width="14.552" height="14.553" viewBox="0 0 14.552 14.553">
  <g id="discount-voucher" transform="translate(-5.002 -5)">
    <g id="Group_1641" data-name="Group 1641" transform="translate(12.983 5)">
      <path id="Path_2594" data-name="Path 2594" d="M36.409,5.855a.269.269,0,0,1-.191-.079.828.828,0,0,0-1.144,0,.269.269,0,0,1-.381-.381,1.347,1.347,0,0,1,1.906,0,.27.27,0,0,1-.191.46Z" transform="translate(-34.615 -5)" fill="#494949"/>
    </g>
    <g id="Group_1642" data-name="Group 1642" transform="translate(18.7 9.508)">
      <path id="Path_2595" data-name="Path 2595" d="M56.1,23.791a.27.27,0,0,1-.191-.46.81.81,0,0,0,0-1.144.269.269,0,1,1,.381-.381,1.349,1.349,0,0,1,0,1.906A.269.269,0,0,1,56.1,23.791Z" transform="translate(-55.828 -21.727)" fill="#494949"/>
    </g>
    <g id="Group_1643" data-name="Group 1643" transform="translate(5.002 12.981)">
      <path id="Path_2596" data-name="Path 2596" d="M5.587,36.678A.269.269,0,0,1,5.4,36.6a1.349,1.349,0,0,1,0-1.905.269.269,0,1,1,.381.381.81.81,0,0,0,0,1.143.27.27,0,0,1-.191.46Z" transform="translate(-5.002 -34.615)" fill="#494949"/>
    </g>
    <g id="Group_1644" data-name="Group 1644" transform="translate(5.317 5.316)">
      <path id="Path_2597" data-name="Path 2597" d="M6.44,14.376a.27.27,0,0,1-.191-.46l7.666-7.666a.269.269,0,0,1,.381.381L6.631,14.3a.268.268,0,0,1-.191.079Z" transform="translate(-6.171 -6.172)" fill="#494949"/>
    </g>
    <g id="Group_1645" data-name="Group 1645" transform="translate(11.034 11.033)">
      <path id="Path_2598" data-name="Path 2598" d="M27.654,35.589a.27.27,0,0,1-.191-.46l7.666-7.666a.269.269,0,0,1,.381.381L27.845,35.51a.269.269,0,0,1-.191.079Z" transform="translate(-27.385 -27.385)" fill="#494949"/>
    </g>
    <g id="Group_1646" data-name="Group 1646" transform="translate(14.616 6.65)">
      <path id="Path_2599" data-name="Path 2599" d="M42.551,14.415a1.87,1.87,0,0,1-1.334-.546,1.912,1.912,0,0,1,0-2.668.269.269,0,0,1,.381.381,1.365,1.365,0,0,0,0,1.905,1.363,1.363,0,0,0,1.906,0,.269.269,0,1,1,.381.381A1.871,1.871,0,0,1,42.551,14.415Z" transform="translate(-40.674 -11.122)" fill="#494949"/>
    </g>
    <g id="Group_1647" data-name="Group 1647" transform="translate(15.079 6.268)">
      <path id="Path_2600" data-name="Path 2600" d="M42.662,10.627a.27.27,0,0,1-.191-.46l.381-.381a.269.269,0,1,1,.381.381l-.381.381A.269.269,0,0,1,42.662,10.627Z" transform="translate(-42.393 -9.707)" fill="#494949"/>
    </g>
    <g id="Group_1648" data-name="Group 1648" transform="translate(17.366 8.555)">
      <path id="Path_2601" data-name="Path 2601" d="M51.147,19.111a.27.27,0,0,1-.191-.46l.381-.381a.269.269,0,0,1,.381.381l-.381.381A.268.268,0,0,1,51.147,19.111Z" transform="translate(-50.878 -18.191)" fill="#494949"/>
    </g>
    <g id="Group_1649" data-name="Group 1649" transform="translate(14.508 5.316)">
      <path id="Path_2602" data-name="Path 2602" d="M41.494,7.664a.269.269,0,0,1-.191-.079l-.953-.953a.269.269,0,0,1,.381-.381l.953.953a.27.27,0,0,1-.191.46Z" transform="translate(-40.272 -6.172)" fill="#494949"/>
    </g>
    <g id="Group_1650" data-name="Group 1650" transform="translate(17.747 8.555)">
      <path id="Path_2603" data-name="Path 2603" d="M53.515,19.684a.269.269,0,0,1-.191-.079l-.953-.953a.269.269,0,0,1,.381-.381l.953.953a.27.27,0,0,1-.191.46Z" transform="translate(-52.293 -18.192)" fill="#494949"/>
    </g>
    <g id="Group_1651" data-name="Group 1651" transform="translate(14.698 10.08)">
      <path id="Path_2604" data-name="Path 2604" d="M42.106,25.245a.269.269,0,0,1-.191-.079l-.858-.858a.269.269,0,0,1,.381-.381l.858.858a.27.27,0,0,1-.191.46Z" transform="translate(-40.979 -23.849)" fill="#494949"/>
    </g>
    <g id="Group_1652" data-name="Group 1652" transform="translate(13.078 8.46)">
      <path id="Path_2605" data-name="Path 2605" d="M36.1,19.234a.269.269,0,0,1-.191-.079l-.858-.858a.269.269,0,0,1,.381-.381l.858.858a.27.27,0,0,1-.191.46Z" transform="translate(-34.969 -17.838)" fill="#494949"/>
    </g>
    <g id="Group_1653" data-name="Group 1653" transform="translate(16.318 11.7)">
      <path id="Path_2606" data-name="Path 2606" d="M48.116,31.255a.269.269,0,0,1-.191-.079l-.858-.858a.269.269,0,1,1,.381-.381l.858.858a.27.27,0,0,1-.191.46Z" transform="translate(-46.989 -29.859)" fill="#494949"/>
    </g>
    <g id="Group_1654" data-name="Group 1654" transform="translate(11.458 6.84)">
      <path id="Path_2607" data-name="Path 2607" d="M30.085,13.224a.269.269,0,0,1-.191-.079l-.858-.858a.269.269,0,0,1,.381-.381l.858.858a.27.27,0,0,1-.191.46Z" transform="translate(-28.958 -11.828)" fill="#494949"/>
    </g>
    <g id="Group_1655" data-name="Group 1655" transform="translate(9.51 18.698)">
      <path id="Path_2608" data-name="Path 2608" d="M22.759,56.683a1.339,1.339,0,0,1-.953-.395.269.269,0,0,1,.381-.381.828.828,0,0,0,1.144,0,.269.269,0,1,1,.381.381A1.34,1.34,0,0,1,22.759,56.683Z" transform="translate(-21.728 -55.828)" fill="#494949"/>
    </g>
    <g id="Group_1656" data-name="Group 1656" transform="translate(5.317 14.506)">
      <path id="Path_2609" data-name="Path 2609" d="M10.633,45a.269.269,0,0,1-.191-.079L6.25,40.732a.269.269,0,0,1,.381-.381l4.193,4.193a.269.269,0,0,1-.191.46Z" transform="translate(-6.171 -40.272)" fill="#494949"/>
    </g>
    <g id="Group_1657" data-name="Group 1657" transform="translate(10.279 10.152)">
      <path id="Path_2610" data-name="Path 2610" d="M25.659,26.219a1.052,1.052,0,1,1,1.078-1.052A1.032,1.032,0,0,1,25.659,26.219Zm0-1.564a.513.513,0,1,0,.539.512A.5.5,0,0,0,25.659,24.655Z" transform="translate(-24.581 -24.116)" fill="#494949"/>
    </g>
    <g id="Group_1658" data-name="Group 1658" transform="translate(9.835 14.585)">
      <path id="Path_2611" data-name="Path 2611" d="M24.011,42.67a1.052,1.052,0,1,1,1.078-1.052A1.032,1.032,0,0,1,24.011,42.67Zm0-1.564a.513.513,0,1,0,.539.512A.5.5,0,0,0,24.011,41.106Z" transform="translate(-22.933 -40.567)" fill="#494949"/>
    </g>
    <g id="Group_1659" data-name="Group 1659" transform="translate(8.262 12.452)">
      <path id="Path_2612" data-name="Path 2612" d="M17.368,34.586a.269.269,0,0,1-.07-.53l5.206-1.4a.27.27,0,0,1,.14.521l-5.206,1.4A.275.275,0,0,1,17.368,34.586Z" transform="translate(-17.099 -32.652)" fill="#494949"/>
    </g>
  </g>
</svg>
