<svg xmlns="http://www.w3.org/2000/svg" width="44" height="30" viewBox="0 0 44 30">
  <g id="egypt" transform="translate(0 -80.01)">
    <path id="Path_1605" data-name="Path 1605" d="M0,304.01v6.2A4.238,4.238,0,0,0,4.258,314.6H39.74A4.238,4.238,0,0,0,44,310.212v-6.2Z" transform="translate(0 -204.589)" fill="#2e2f30"/>
    <path id="Path_1606" data-name="Path 1606" d="M39.74,80.01H4.258A4.238,4.238,0,0,0,0,84.4v6.2H44V84.4A4.238,4.238,0,0,0,39.74,80.01Z" fill="#cc3434"/>
    <rect id="Rectangle_2822" data-name="Rectangle 2822" width="43.998" height="10.589" transform="translate(0 89.715)" fill="#f5feff"/>
    <path id="Path_1607" data-name="Path 1607" d="M327.6,314.6a4.508,4.508,0,0,0,4.689-4.387v-6.2H315.2Z" transform="translate(-288.296 -204.589)"/>
    <path id="Path_1608" data-name="Path 1608" d="M83.232,80.01H48L59.7,90.6H87.46V84.4A4.224,4.224,0,0,0,83.232,80.01Z" transform="translate(-43.462)" fill="#ba2b2b"/>
    <path id="Path_1609" data-name="Path 1609" d="M192.858,202.6h17.018V192.01H180Z" transform="translate(-165.879 -102.295)" fill="#d9e2e1"/>
    <path id="Path_1610" data-name="Path 1610" d="M83.232,80.01H48l32.625,9.705H87.46V84.031A4.048,4.048,0,0,0,83.232,80.01Z" transform="translate(-43.462)" fill="#a32323"/>
    <path id="Path_1611" data-name="Path 1611" d="M422.115,194.128V192.01H414.4Z" transform="translate(-378.117 -102.042)" fill="#c9d3d1"/>
    <path id="Path_1612" data-name="Path 1612" d="M44,368.086a4.174,4.174,0,0,1-4.258,4.463H4.258A4.37,4.37,0,0,1,0,368.01" transform="translate(0 -262.538)"/>
    <g id="Group_688" data-name="Group 688" transform="translate(18.217 89.793)">
      <path id="Path_1613" data-name="Path 1613" d="M215.564,201.735c-.076-1.059-.076-2.118-.151-3.177a8.219,8.219,0,0,0-.076-1.361,19.98,19.98,0,0,0-.151-2.193.627.627,0,0,0-.605-.227c-.605.076-1.135.681-1.74.605a2.42,2.42,0,0,1-.378-.983v-.605a.942.942,0,0,0-.3-.832,1.806,1.806,0,0,0-.681-.151c-.076,0-.151.076-.227.151-.3-.151-.756-.227-.681.227.3-.151.605.227.605.529a2.009,2.009,0,0,1-.454,1.588c-.681,0-1.135-.529-1.74-.605-.529-.076-.681.3-.681.832a9.152,9.152,0,0,1-.076,1.437,8.222,8.222,0,0,1-.076,1.361v.756c-.076.454,0,1.059-.076,1.513A4.651,4.651,0,0,1,208,201.66a3.631,3.631,0,0,1,.908,0c0,.076.076.076.076.227-.227.076-.227.227-.454.3.151.076.151.378.3.454,0,.151,0,.227.076.227.151.076.605.151.832.227a19.4,19.4,0,0,0,4.689-.076c.3-.076.454-.076.454-.378.151-.076.151-.3.3-.454a1.043,1.043,0,0,1-.3-.227c-.076-.076-.076,0-.151-.076,0-.076,0-.151.076-.151A2.521,2.521,0,0,1,215.564,201.735Zm-6.354-.151c-.076.076-.151.076-.227.151-.076-.151.076-.3.227-.3Zm3.857.3a3.645,3.645,0,0,1-.908,0,.23.23,0,0,1,0-.3h.908c.378-.076.832-.151,1.135-.227.076,0,.076.151.076.227a3.193,3.193,0,0,1-.908.227C213.37,201.508,213.068,201.584,213.068,201.886Zm.3,0-.151.151a.234.234,0,0,0-.151-.076C213.068,201.66,213.37,201.584,213.37,201.886Zm-2.118-2.647c.076.076.151.151.227.151,0,.151-.076.3-.076.454C211.328,199.693,211.026,199.39,211.252,199.239Zm-.378.378a3.682,3.682,0,0,1-.076-.908l.454.454A2,2,0,0,1,210.874,199.617Zm.605,1.74c.076-.378.076-.832.151-1.21a5.725,5.725,0,0,1-.076,1.135c0,.151.151.151.151.3l.227-.227c0-.378-.076-.832-.076-1.21a5.839,5.839,0,0,1,.151,1.135c.076.076.151.076.151.151.076,0,.076-.076.151-.076.076.076,0,.151.076.227h-.3c-.076,0-.076.076-.151.076h-.454c-.076-.151-.3-.076-.454-.076,0-.076,0-.151.076-.151,0-.076.076.076.151.076C211.328,201.433,211.4,201.433,211.479,201.357Zm1.21-1.74c-.151-.076-.227-.3-.378-.454l.454-.454h0C212.765,199.012,212.69,199.315,212.69,199.617Zm.3-1.361h0c.076.378.378.756.151,1.135-.151-.076-.227-.3-.378-.378A1.278,1.278,0,0,1,212.992,198.256Zm-.605,1.135c-.076.151-.151.378-.227.529-.076-.151-.076-.3-.151-.454.076-.076.151-.076.227-.227A.163.163,0,0,1,212.387,199.39Zm-.756,2.723c-.076,0-.151-.076-.227-.151,0-.076.076-.076.076-.227C211.631,201.735,211.706,201.962,211.631,202.113Zm0-.378h.3c-.076.076-.076.227-.227.151C211.706,201.811,211.631,201.811,211.631,201.735Zm.378,0c.076,0,.076.151.151.227,0,.076-.151.076-.151.151C211.858,202.038,211.933,201.811,212.009,201.735Zm.908-.378c.076,0,.151.151.151.227h-.227C212.841,201.508,212.916,201.433,212.916,201.357Zm.378.151a.393.393,0,0,1,.151-.3c.076.076.151.151.151.227C213.522,201.433,213.37,201.508,213.295,201.508Zm.378-.076c-.076-.076-.151-.227-.3-.378a1.075,1.075,0,0,0-.151.454h-.076a.573.573,0,0,1-.151-.3c-.076.076-.076.227-.151.378h-.227a1.055,1.055,0,0,1,0-.832.755.755,0,0,1,.3.378c.076-.151.076-.3.151-.454a.755.755,0,0,1,.3.378c.076-.151.151-.378.227-.529h.076l.227.908Zm-.3-.529c-.151-.076-.151-.227-.3-.378-.076.151-.076.3-.151.454-.151-.076-.227-.3-.378-.378a.959.959,0,0,0-.076.454c-.076-.227-.151-.529-.227-.832.076,0,.227.227.3.3.076-.227.076-.454.151-.605.151.076.151.227.227.3l.227-.454c.151.076.227.227.378.3C213.673,200.449,213.446,200.676,213.37,200.9Zm-.227-1.135c-.076.151-.076.227-.151.378-.151-.076-.151-.227-.227-.3a1.807,1.807,0,0,0-.151.681c-.151-.151-.378-.227-.378-.454,0-.076.076-.227.076-.3.076-.076.076-.151.151-.3.076.076.151.227.3.3a2.094,2.094,0,0,1,.076-.681c.151.076.227.227.378.378a.278.278,0,0,0,.076-.227,1.724,1.724,0,0,1,.227.832C213.37,200,213.295,199.844,213.143,199.769Zm.151-1.135a7.285,7.285,0,0,1,0-1.286h.076c0,.756.076,1.513.076,2.269A2.234,2.234,0,0,1,213.295,198.634Zm-1.513.908a3.542,3.542,0,0,1-1.588-3.252,2.482,2.482,0,0,0,1.588-.454l.454.227a2.526,2.526,0,0,0,1.135.227A3.542,3.542,0,0,1,211.782,199.542Zm-.983-.529a.911.911,0,0,1-.378.378c-.3-.3.076-.756.076-1.135A.877.877,0,0,1,210.8,199.012Zm-.605-1.664h0c.151.151.076.529.076.832a3.756,3.756,0,0,1-.151,1.361C210.118,198.861,210.193,198.029,210.193,197.348Zm.151,1.891c0,.076.076.151.076.227l.378-.378a1.878,1.878,0,0,1,.076.681c.076-.076.151-.227.3-.3.076.227.151.378.227.605-.076.227-.227.3-.378.454l-.227-.681c-.151.076-.076.3-.227.3-.076-.151-.076-.227-.151-.378-.151.076-.227.227-.378.3,0-.076.076-.151.076-.227C210.193,199.617,210.193,199.39,210.345,199.239Zm0,.605a2.519,2.519,0,0,1,.227.454c.076-.076.076-.227.227-.3a5.212,5.212,0,0,0,.227.605l.3-.3a2.687,2.687,0,0,0-.151.756c-.076-.076-.076-.3-.076-.454-.151.076-.227.3-.378.378a1.075,1.075,0,0,1-.151-.454c-.151.076-.151.227-.3.378-.076-.227-.3-.454-.227-.756C210.193,200.071,210.269,199.92,210.345,199.844Zm-.151,1.135a1.328,1.328,0,0,1,.3-.378,1.075,1.075,0,0,1,.151.454c.151-.076.227-.3.3-.378a1.059,1.059,0,0,1,0,.832h-.227c-.076-.076-.076-.227-.151-.378-.076.076-.151.227-.227.3h-.076a1.075,1.075,0,0,1-.151-.454c-.076.076-.151.227-.227.3a.278.278,0,0,1-.227-.076,7.025,7.025,0,0,1,.3-.983A4.7,4.7,0,0,0,210.193,200.979Zm.529.605H210.5c0-.076.076-.151.076-.227C210.647,201.357,210.647,201.508,210.723,201.584Zm-.454-.076c-.151,0-.227-.076-.3-.076,0-.151.151-.151.151-.3C210.193,201.281,210.269,201.357,210.269,201.508Zm0,.076a6.116,6.116,0,0,0,1.135.076c.076.076,0,.151,0,.3a3.645,3.645,0,0,1-.908,0c0-.3-.227-.378-.227-.076-.3-.076-.756-.076-.756-.227v-.227c0-.076-.076-.076.076-.076A7.139,7.139,0,0,0,210.269,201.584Zm.151.3a.074.074,0,0,0-.076.076c-.151,0-.151-.378.076-.3Zm3.933-.454c.151,0,.227.151.227.3-.076,0-.151-.076-.227-.076Zm-.454-.076c-.151-.529-.3-.983-.454-1.513.151.076.227.227.3.3,0-1.286-.151-2.647-.151-4.009a1.172,1.172,0,0,1-.605.151,2.183,2.183,0,0,1-1.286-.454,2.969,2.969,0,0,1-.983.454.929.929,0,0,1-.908-.151c-.076,1.361-.151,2.647-.151,4.009.151-.076.227-.227.378-.3-.151.529-.3,1.135-.454,1.588-.3-.076-.681-.3-.756.227h-.605c.076,0,.076-.151.227-.3.076-2.042.151-4.009.227-6.127a.578.578,0,0,0-.378.151c0-.3.151-.605.454-.605.681-.076,1.21.605,1.891.605,0,.076-.076.076-.151.151.151,0,.378,0,.454-.076,0,.076-.076.151-.151.227a.676.676,0,0,0,.605-.3l.227.227.227-.227a.959.959,0,0,0,.681.3c0-.076-.151-.151-.151-.227a1.124,1.124,0,0,0,.454.076c0-.076-.151-.076-.151-.151.756,0,1.135-.681,1.891-.605.3,0,.454.227.454.605-.151-.076-.227-.151-.378-.151.076,1.664.151,3.706.227,5.37,0,.227-.076.529,0,.681s.3.227.378.378H214.5C214.656,201.357,214.278,201.281,213.9,201.357Z" transform="translate(-208 -192.81)" fill="#db9c00"/>
      <g id="Group_685" data-name="Group 685" transform="translate(0.378 0)">
        <path id="Path_1614" data-name="Path 1614" d="M231.177,225.264a2.183,2.183,0,0,1-1.286-.454,2.97,2.97,0,0,1-.983.454.929.929,0,0,1-.908-.151v.3l.378.3v-.378a2.482,2.482,0,0,0,1.588-.454l.454.227a2.526,2.526,0,0,0,1.135.227,4.012,4.012,0,0,1-.756,2.42h.076l.076-.076h0v.151h0a.859.859,0,0,1,.227-.605h.076c0,.3.227.681.151.983h0v0l.076.076a1.878,1.878,0,0,1-.076-.681,7.288,7.288,0,0,1,0-1.286h.076c0,.681.076,1.437.076,2.118l.378.3c0-1.21-.076-2.42-.151-3.631A1.172,1.172,0,0,1,231.177,225.264Z" transform="translate(-226.487 -221.785)" fill="#996a00"/>
        <path id="Path_1615" data-name="Path 1615" d="M219.034,198.558a8.22,8.22,0,0,0-.076-1.361,19.977,19.977,0,0,0-.151-2.193.627.627,0,0,0-.605-.227c-.605.076-1.135.681-1.74.605a2.421,2.421,0,0,1-.378-.983v-.605a.942.942,0,0,0-.3-.832,1.806,1.806,0,0,0-.681-.151c-.076,0-.151.076-.227.151-.3-.151-.756-.227-.681.227.3-.151.605.227.605.529a2.008,2.008,0,0,1-.454,1.588c-.681,0-1.135-.529-1.74-.605-.378,0-.529.151-.605.378h0a.511.511,0,0,1,.454-.3c.681-.076,1.21.605,1.891.605,0,.076-.076.076-.151.151.151,0,.378,0,.454-.076,0,.076-.076.151-.151.227a.676.676,0,0,0,.605-.3l.227.227.227-.227a.959.959,0,0,0,.681.3c0-.076-.151-.151-.151-.227a1.124,1.124,0,0,0,.454.076c0-.076-.151-.076-.151-.151.756,0,1.135-.681,1.891-.605.3,0,.454.227.454.605-.151-.076-.227-.151-.378-.151.076,1.664.151,3.706.227,5.37v.227l.454.378A15.471,15.471,0,0,0,219.034,198.558Z" transform="translate(-212 -192.81)" fill="#996a00"/>
        <path id="Path_1616" data-name="Path 1616" d="M213.827,218.637v-.227a.278.278,0,0,0-.227.076Z" transform="translate(-213.449 -215.99)" fill="#996a00"/>
      </g>
      <path id="Path_1617" data-name="Path 1617" d="M214.627,219.21c-.076,1.967-.151,3.933-.227,5.824.151-.076.3-.3.454-.378.076-1.815.151-3.328.227-5.068A2.005,2.005,0,0,0,214.627,219.21Z" transform="translate(-213.795 -216.714)" fill="#db9c00"/>
      <path id="Path_1618" data-name="Path 1618" d="M216.8,219.437l.454.378v-.227a2.006,2.006,0,0,0-.454-.378Z" transform="translate(-215.968 -216.714)" fill="#996a00"/>
      <path id="Path_1619" data-name="Path 1619" d="M274.854,219.21c-.076.151-.378.227-.454.378v.681c.151,1.361.076,2.874.151,4.311l.227.227c.076.076.151.227.227.151C275.005,223.143,274.929,220.95,274.854,219.21Z" transform="translate(-268.122 -216.714)" fill="#db9c00"/>
      <path id="Path_1620" data-name="Path 1620" d="M274.854,219.21c-.076.151-.378.227-.454.378v.681c.076,1.21.076,2.572.151,3.933l.454.378C275.005,222.841,274.929,220.874,274.854,219.21Z" transform="translate(-268.122 -216.714)" fill="#996a00"/>
      <path id="Path_1621" data-name="Path 1621" d="M220.8,228.851c.076-.151.3-.227.378-.378s0-.378,0-.605c.076-1.135.151-2.5.151-3.555-.151-.076-.227-.227-.378-.3C220.951,225.6,220.876,227.262,220.8,228.851Z" transform="translate(-219.59 -221.06)" fill="#db9c00"/>
      <path id="Path_1622" data-name="Path 1622" d="M222.4,224.237l.378.3v-.227c-.151-.076-.227-.227-.378-.3C222.476,224.086,222.4,224.161,222.4,224.237Z" transform="translate(-221.039 -221.06)" fill="#996a00"/>
      <path id="Path_1623" data-name="Path 1623" d="M269.6,225.037c.076,1.361.076,2.8.151,4.16l.3.3.076.076c-.076-1.588-.151-3.328-.227-4.765C269.827,224.886,269.676,224.961,269.6,225.037Z" transform="translate(-263.776 -221.785)" fill="#db9c00"/>
      <path id="Path_1624" data-name="Path 1624" d="M269.9,224.01c-.076.076-.227.151-.3.3.076,1.286.076,2.572.151,3.857l.378.3C270.054,226.96,269.978,225.371,269.9,224.01Z" transform="translate(-263.776 -221.06)" fill="#996a00"/>
      <path id="Path_1625" data-name="Path 1625" d="M232,226.064a3.605,3.605,0,0,0,1.513,3.025,3.38,3.38,0,0,0,1.437-3.025,2.048,2.048,0,0,1-1.437-.454A2.258,2.258,0,0,1,232,226.064Z" transform="translate(-229.731 -222.509)" fill="#db9c00"/>
      <path id="Path_1626" data-name="Path 1626" d="M232,226.064c0,.151.076.227.076.378l2.193,1.891a3.676,3.676,0,0,0,.681-2.269,2.048,2.048,0,0,1-1.437-.454A2.258,2.258,0,0,1,232,226.064Z" transform="translate(-229.731 -222.509)" fill="#996a00"/>
      <g id="Group_686" data-name="Group 686" transform="translate(1.361 8.649)">
        <path id="Path_1627" data-name="Path 1627" d="M222.4,284.334c.076,0,.151.076.227.076,0-.151-.151-.151-.227-.076Z" transform="translate(-222.4 -284.285)" fill="#db9c00"/>
        <path id="Path_1628" data-name="Path 1628" d="M271.2,284.41c.076,0,.151-.076.227-.076C271.427,284.259,271.2,284.259,271.2,284.41Z" transform="translate(-266.586 -284.285)" fill="#db9c00"/>
        <path id="Path_1629" data-name="Path 1629" d="M226.7,285.686c-.076-.076-.151-.076-.3-.076A.455.455,0,0,0,226.7,285.686Z" transform="translate(-226.022 -285.485)" fill="#db9c00"/>
        <path id="Path_1630" data-name="Path 1630" d="M266.4,285.686c.076,0,.3,0,.3-.076A.782.782,0,0,0,266.4,285.686Z" transform="translate(-262.24 -285.485)" fill="#db9c00"/>
        <path id="Path_1631" data-name="Path 1631" d="M257.6,286.923h.3C257.9,286.772,257.676,286.772,257.6,286.923Z" transform="translate(-254.272 -286.571)" fill="#db9c00"/>
        <path id="Path_1632" data-name="Path 1632" d="M235.5,287.029c-.076,0-.3-.076-.3.076C235.276,287.029,235.5,287.1,235.5,287.029Z" transform="translate(-233.99 -286.752)" fill="#db9c00"/>
        <path id="Path_1633" data-name="Path 1633" d="M240.3,287.21c-.076,0-.3,0-.3.076A.455.455,0,0,0,240.3,287.21Z" transform="translate(-238.336 -286.933)" fill="#db9c00"/>
        <path id="Path_1634" data-name="Path 1634" d="M252.8,287.534a.572.572,0,0,1,.3.076C253.1,287.459,252.876,287.459,252.8,287.534Z" transform="translate(-249.926 -287.182)" fill="#db9c00"/>
      </g>
      <g id="Group_687" data-name="Group 687" transform="translate(1.21 9.076)">
        <path id="Path_1635" data-name="Path 1635" d="M264.283,289.264c-.227,0-.151-.378-.3-.454a.278.278,0,0,0-.227.076c.227-.151.3.227.3.454-.076,0-.076-.076-.151-.076-.151,0-.151.151-.3.151,0-.076-.076-.076-.227-.076-.076-.076,0-.227-.076-.227,0,.076.076.151.076.227-.076.076-.076.076-.076.151h-.151c0-.076,0-.151-.076-.151,0,.076-.151.076-.076.151a.234.234,0,0,1,.151.076c0,.076-.076.076-.076.151.076,0,.076-.076.151-.151.151,0,.3-.076.378,0,.076,0,.076-.151.151-.151.151.151.3-.076.378-.076h.227v-.076C264.283,289.188,264.359,289.264,264.283,289.264Zm-1.286.227c0-.076,0-.076.076-.076v.076S263.073,289.566,263,289.491Zm.378,0v-.151c.076,0,.076.076,0,.151Zm.227-.076h-.076C263.375,289.339,263.6,289.264,263.6,289.415Zm-.076.076a.074.074,0,0,1,.076-.076C263.6,289.491,263.527,289.566,263.527,289.491Zm.227-.076c0-.151.151-.151.227-.076C263.98,289.415,263.829,289.415,263.754,289.415Z" transform="translate(-258.988 -288.81)" fill="#f5feff"/>
        <path id="Path_1636" data-name="Path 1636" d="M221.751,289.686h0c-.076-.076-.076-.076-.151-.076v.076Z" transform="translate(-221.524 -289.534)" fill="#f5feff"/>
        <path id="Path_1637" data-name="Path 1637" d="M220.951,291.21H220.8c.076.076.076.076.151,0Z" transform="translate(-220.8 -290.983)" fill="#f5feff"/>
        <path id="Path_1638" data-name="Path 1638" d="M253.676,292.886v-.076H253.6a.074.074,0,0,0,.076.076Z" transform="translate(-250.499 -292.432)" fill="#f5feff"/>
        <path id="Path_1639" data-name="Path 1639" d="M229.481,293.339c-.076-.076-.076-.151-.151-.227.151-.076.076-.3,0-.3s-.076.076-.151.076c0,.076.076.076.076.151-.076,0-.227.076-.3,0,0-.076,0-.151-.076-.151,0,.076.076.227-.076.3.076,0,.076-.076.151-.076.076.076.227,0,.3,0,.151.076.151.3.227.227.151,0,.151-.378.076-.529C229.556,292.961,229.708,293.339,229.481,293.339Zm-.3-.3c0-.227.3,0,.076.076Z" transform="translate(-228.044 -292.432)" fill="#f5feff"/>
        <path id="Path_1640" data-name="Path 1640" d="M238.878,293.264c0-.151.076-.378,0-.454C238.878,292.886,238.8,293.113,238.878,293.264Z" transform="translate(-237.138 -292.432)" fill="#f5feff"/>
        <path id="Path_1641" data-name="Path 1641" d="M254.778,292.237c-.076.076.076.076,0,.151,0,.076-.076.076-.151.076-.151-.076,0-.378-.076-.454,0,.076.076.227,0,.378-.076,0-.151,0-.151.076h.454S254.929,292.237,254.778,292.237Z" transform="translate(-251.223 -291.707)" fill="#f5feff"/>
        <path id="Path_1642" data-name="Path 1642" d="M253.978,294.088c0-.076-.076,0-.076,0C253.751,294.088,253.978,294.164,253.978,294.088Z" transform="translate(-250.725 -293.559)" fill="#f5feff"/>
        <path id="Path_1643" data-name="Path 1643" d="M260.6,294.41c-.076.076.076.151.076.227s-.076.076-.076.151C260.673,294.788,260.748,294.486,260.6,294.41Zm.076.227a.074.074,0,0,1-.076-.076C260.6,294.486,260.673,294.561,260.673,294.637Z" transform="translate(-256.815 -293.881)" fill="#f5feff"/>
        <path id="Path_1644" data-name="Path 1644" d="M275.2,294.888c.076,0,.151.076.151,0C275.276,294.888,275.2,294.812,275.2,294.888Z" transform="translate(-270.057 -294.283)" fill="#f5feff"/>
        <path id="Path_1645" data-name="Path 1645" d="M240.983,295.437h-.076c0-.076,0-.151-.076-.151a.664.664,0,0,1-.529-.076c0,.076.076.151-.076.227-.076,0-.076-.151-.151-.151-.076.076.076.151.076.151,0,.076-.076.151-.151.227.076,0,.151-.151.227-.227h.454c0,.076.076.076.151.151.076,0,.076-.151.076-.151.151,0,.227,0,.3-.076C241.21,295.21,240.983,295.286,240.983,295.437Zm-.227.151c-.076,0-.076-.076-.076-.151h-.3c0-.3.3,0,.454-.151C240.908,295.437,240.832,295.513,240.756,295.588Zm.3-.151c-.076-.076.076-.151.076-.076S241.135,295.437,241.059,295.437Z" transform="translate(-238.185 -294.605)" fill="#f5feff"/>
        <path id="Path_1646" data-name="Path 1646" d="M221.676,296.564v-.076s0-.076-.076,0C221.6,296.412,221.6,296.488,221.676,296.564Z" transform="translate(-221.524 -295.732)" fill="#f5feff"/>
        <path id="Path_1647" data-name="Path 1647" d="M223.2,296.586c.076.076.151,0,.151-.076C223.276,296.434,223.2,296.51,223.2,296.586Z" transform="translate(-222.973 -295.754)" fill="#f5feff"/>
        <path id="Path_1648" data-name="Path 1648" d="M225.4,296.774h.076C225.473,296.622,225.322,296.7,225.4,296.774Z" transform="translate(-224.943 -295.942)" fill="#f5feff"/>
        <path id="Path_1649" data-name="Path 1649" d="M255.457,298.41c-.076,0-.076.151,0,.151Z" transform="translate(-252.129 -297.502)" fill="#f5feff"/>
        <path id="Path_1650" data-name="Path 1650" d="M256.8,298.59a.074.074,0,0,0,.076.076C257.027,298.59,256.8,298.439,256.8,298.59Z" transform="translate(-253.396 -297.607)" fill="#f5feff"/>
        <path id="Path_1651" data-name="Path 1651" d="M222.205,289.988c.151.227-.151.3-.227.151,0-.076.076-.076.076-.151-.076,0-.076.151-.076.151-.3,0-.076-.378-.076-.529h-.076a.416.416,0,0,1-.227.378c0,.151.151.151.3.227a.455.455,0,0,0,.3.076C222.205,290.139,222.356,289.988,222.205,289.988Z" transform="translate(-221.524 -289.534)" fill="#f5feff"/>
      </g>
    </g>
  </g>
</svg>
