<svg xmlns="http://www.w3.org/2000/svg" width="30" height="30" viewBox="0 0 30 30">
  <g id="paypal" transform="translate(0 -10.676)">
    <path id="Path_2581" data-name="Path 2581" d="M172.872,75.322a2.481,2.481,0,0,0-2.538-.542.7.7,0,0,0-.469.559l-.2,1.344a4.145,4.145,0,0,1-4.085,3.546h-2.794a.7.7,0,0,0-.678.529l-2.1,8.382a.7.7,0,0,0,.678.868h3.493a.7.7,0,0,0,.678-.529l1.264-5.059h2.724a4.531,4.531,0,0,0,4.415-3.449l.515-2.066A3.674,3.674,0,0,0,172.872,75.322Z" transform="translate(-149.977 -59.773)" fill="#03a9f4"/>
    <g id="Group_1634" data-name="Group 1634" transform="translate(0 32.294)">
      <path id="Path_2582" data-name="Path 2582" d="M.7,337.662a.7.7,0,0,1-.678-.867l.7-2.78v-.029l.7-2.779a.7.7,0,0,1,.678-.529H3.872a1.746,1.746,0,0,1,1.695,2.17l-.175.7A1.746,1.746,0,0,1,3.7,334.868H1.943l-.566,2.265A.7.7,0,0,1,.7,337.662Zm1.594-4.191H3.7a.349.349,0,0,0,.338-.265l.175-.7a.348.348,0,0,0-.338-.434H2.642Z" transform="translate(0 -330.677)" fill="#283593"/>
      <path id="Path_2583" data-name="Path 2583" d="M82.9,377.512h-.995a1.936,1.936,0,0,1-1.879-2.406h0l.092-.372a1.864,1.864,0,0,1,1.816-1.415h.995a1.936,1.936,0,0,1,1.875,2.407l-.092.372A1.864,1.864,0,0,1,82.9,377.512Zm-1.517-2.066a.539.539,0,0,0,.393.653.546.546,0,0,0,.129.016H82.9a.468.468,0,0,0,.455-.355l.092-.372a.539.539,0,0,0-.523-.669h-.995a.468.468,0,0,0-.455.355Z" transform="translate(-74.732 -370.527)" fill="#283593"/>
      <path id="Path_2584" data-name="Path 2584" d="M128.7,377.523a.7.7,0,0,1-.678-.868l.7-2.794a.7.7,0,0,1,1.357.338l-.7,2.794A.7.7,0,0,1,128.7,377.523Z" transform="translate(-119.618 -370.538)" fill="#283593"/>
    </g>
    <g id="Group_1635" data-name="Group 1635" transform="translate(16.029 32.294)">
      <path id="Path_2585" data-name="Path 2585" d="M256.7,337.661a.7.7,0,0,1-.678-.868l.7-2.78v-.029l.7-2.779a.7.7,0,0,1,.678-.529h1.777a1.746,1.746,0,0,1,1.695,2.17l-.175.7a1.746,1.746,0,0,1-1.695,1.323h-1.755l-.566,2.265A.7.7,0,0,1,256.7,337.661Zm1.594-4.191H259.7a.349.349,0,0,0,.338-.265l.175-.7a.348.348,0,0,0-.338-.434h-1.232Z" transform="translate(-256 -330.676)" fill="#03a9f4"/>
      <path id="Path_2586" data-name="Path 2586" d="M338.9,377.512h-.995a1.936,1.936,0,0,1-1.879-2.406h0l.092-.372a1.864,1.864,0,0,1,1.816-1.415h.995a1.936,1.936,0,0,1,1.879,2.406l-.092.372A1.864,1.864,0,0,1,338.9,377.512Zm-1.517-2.066a.539.539,0,0,0,.393.653.546.546,0,0,0,.129.016h.995a.468.468,0,0,0,.455-.355l.092-.372a.539.539,0,0,0-.522-.669h-.995a.468.468,0,0,0-.455.355Z" transform="translate(-330.732 -370.527)" fill="#03a9f4"/>
      <path id="Path_2587" data-name="Path 2587" d="M384.7,377.523a.7.7,0,0,1-.678-.868l.7-2.794a.7.7,0,0,1,1.357.338h0l-.7,2.794A.7.7,0,0,1,384.7,377.523Z" transform="translate(-375.618 -370.538)" fill="#03a9f4"/>
    </g>
    <g id="Group_1636" data-name="Group 1636" transform="translate(10.858 35.087)">
      <path id="Path_2588" data-name="Path 2588" d="M172.757,376.823a.7.7,0,0,1-.581-.312l-1.4-2.1a.7.7,0,1,1,1.162-.775l1.4,2.1a.7.7,0,0,1-.581,1.087Z" transform="translate(-170.661 -373.329)" fill="#283593"/>
      <path id="Path_2589" data-name="Path 2589" d="M171.365,378.936a.7.7,0,0,1-.536-1.146l3.493-4.191a.7.7,0,1,1,1.073.9h0l-3.493,4.191A.7.7,0,0,1,171.365,378.936Z" transform="translate(-170.667 -373.347)" fill="#283593"/>
    </g>
    <path id="Path_2590" data-name="Path 2590" d="M427.364,337.651a.7.7,0,0,1-.678-.868l1.4-5.588a.7.7,0,1,1,1.357.338h0l-1.4,5.588A.7.7,0,0,1,427.364,337.651Z" transform="translate(-399.461 -298.372)" fill="#03a9f4"/>
    <path id="Path_2591" data-name="Path 2591" d="M120.724,11.884a3.53,3.53,0,0,0-2.663-1.208h-7.907a.7.7,0,0,0-.687.574l-2.794,15.367a.7.7,0,0,0,.687.823h4.191a.7.7,0,0,0,.678-.529l1.266-5.059h2.248a5.549,5.549,0,0,0,5.469-4.75l.349-2.388h0A3.558,3.558,0,0,0,120.724,11.884Z" transform="translate(-100.002)" fill="#283593"/>
  </g>
</svg>
