<svg xmlns="http://www.w3.org/2000/svg" width="30" height="32.342" viewBox="0 0 30 32.342">
  <g id="Symbols" transform="translate(-9)">
    <g id="alipay" transform="translate(9)">
      <path id="Fill-82" d="M9.093,20.238a.92.92,0,0,0,.975.95.95.95,0,1,0,0-1.9.926.926,0,0,0-.975.949" transform="translate(1.398 2.991)" fill="#1677ff" fill-rule="evenodd"/>
      <path id="Fill-85" d="M9.2,27.179H10.9v-5.85H9.2Z" transform="translate(1.415 3.307)" fill-rule="evenodd"/>
      <path id="Fill-87" d="M13.695,26.191a1.822,1.822,0,0,1-.579-.087V22.939a1.646,1.646,0,0,1,1.007-.371c.632,0,1.136.513,1.136,1.6,0,1.4-.74,2.019-1.565,2.019m1.072-4.966a2.452,2.452,0,0,0-1.65.7v-.579H11.423v7.705h1.693v-1.91a3.592,3.592,0,0,0,.986.131,2.9,2.9,0,0,0,2.872-3.154c0-1.812-.986-2.892-2.208-2.892" transform="translate(1.754 3.291)" fill-rule="evenodd"/>
      <path id="Fill-86" d="M26.756,21.34l.011-.011h-1.6l-1.007,3.558h-.054l-1.157-3.558h-1.9L23.337,27.2l-.954,1.79v.044h1.49Z" transform="translate(3.233 3.307)" fill-rule="evenodd"/>
      <path id="Fill-88" d="M19.745,25.776a2,2,0,0,1-1.008.349.64.64,0,0,1-.664-.709.619.619,0,0,1,.161-.458,3.309,3.309,0,0,1,1.511-.578Zm1.693-.044V23.288a1.9,1.9,0,0,0-2.132-2.063,7.823,7.823,0,0,0-2.562.491l.3,1.342a4.94,4.94,0,0,1,1.9-.655c.557,0,.8.4.8,1.026v.044c-1.94.371-2.54.579-2.915.96a1.6,1.6,0,0,0-.4,1.157,1.655,1.655,0,0,0,1.661,1.724,2.735,2.735,0,0,0,1.736-.731l.118.611h1.693Z" transform="translate(2.524 3.291)" fill-rule="evenodd"/>
      <path id="Fill-89" d="M20.711,0H7.633A3.127,3.127,0,0,0,4.551,3.171V16.623a3.127,3.127,0,0,0,3.082,3.171H20.711a3.127,3.127,0,0,0,3.081-3.171V3.171A3.126,3.126,0,0,0,20.711,0" transform="translate(0.706)" fill="#1677ff" fill-rule="evenodd"/>
      <path id="Fill-90" d="M9.567,14.869c-3,0-3.885-2.426-2.4-3.753a3.718,3.718,0,0,1,1.88-.716c1.781-.181,3.43.517,5.376,1.492-1.368,1.832-3.11,2.977-4.852,2.977m10.66-2.793c-.771-.265-1.806-.671-2.958-1.1A16.222,16.222,0,0,0,18.877,6.8h-3.8V5.4h4.654V4.615H15.079V2.272h-1.9a.329.329,0,0,0-.333.338V4.615H8.139V5.4h4.707V6.8H8.96v.784H16.5a14.016,14.016,0,0,1-1.086,2.724c-2.445-.829-5.055-1.5-6.694-1.087A3.838,3.838,0,0,0,6.6,10.461c-1.821,2.275-.515,5.731,3.33,5.731a8.1,8.1,0,0,0,6.161-3.447c2.532,1.25,7.544,3.4,7.544,3.4V13.082a20.14,20.14,0,0,1-3.4-1.006" transform="translate(0.88 0.352)" fill="#fff" fill-rule="evenodd"/>
      <path id="Fill-83" d="M6.736,27.463H8.43V19.5H6.736Z" transform="translate(1.036 3.023)" fill-rule="evenodd"/>
      <path id="Fill-84" d="M2.347,24.665l1.007-3.547H3.4l.954,3.547Zm2.465-4.933H2.54L0,27.427H1.565l.429-1.506h2.69l.407,1.506h2Z" transform="translate(0 3.06)" fill-rule="evenodd"/>
    </g>
  </g>
</svg>
