<svg xmlns="http://www.w3.org/2000/svg" xmlns:xlink="http://www.w3.org/1999/xlink" width="145.688" height="57.239" viewBox="0 0 145.688 57.239">
  <defs>
    <clipPath id="clip-path">
      <rect id="Rectangle_2792" data-name="Rectangle 2792" width="145.688" height="57.239" fill="none"/>
    </clipPath>
  </defs>
  <g id="Group_657" data-name="Group 657" transform="translate(0 0)">
    <g id="Group_656" data-name="Group 656" transform="translate(0 0)" clip-path="url(#clip-path)">
      <path id="Path_1441" data-name="Path 1441" d="M214.825.212A9.893,9.893,0,0,0,212.732,0h-.045c-.235,0-.469.011-.716.034a10.211,10.211,0,0,0-2.864.615,2.4,2.4,0,0,0-.392.157.041.041,0,0,0-.034.011,10.674,10.674,0,0,0-2.831,1.8V2.607L205.84,2.6a10.313,10.313,0,0,0-3.513,7.5,3.406,3.406,0,0,1,.034.492v.034c0,.123,0,.235-.011.358a3.253,3.253,0,0,1-.481,1.578,1.468,1.468,0,0,1-.145.213,3.237,3.237,0,0,1-1.108.984,3.691,3.691,0,0,1-5.482-3.916,3.653,3.653,0,0,1,2.954-2.842,3.576,3.576,0,0,1,3.032.862,11.738,11.738,0,0,1,3.334-6.277A10.206,10.206,0,0,0,198.981.011,10.359,10.359,0,0,0,188.71,11.725a10.226,10.226,0,0,0,10.271,9,9.126,9.126,0,0,0,5.852-1.88,3.054,3.054,0,0,0,.369-.291l.022-.022a5.652,5.652,0,0,0,.526-.5,13.148,13.148,0,0,0,3.166-7.34c.313-2.059,1.7-3.715,3.748-3.748a3.912,3.912,0,0,1,3.849,3.939v9.756h3.39a3.171,3.171,0,0,0,3.167-3.166v-7.1A10.39,10.39,0,0,0,214.825.212" transform="translate(-77.383 0)" fill="#ff9133"/>
      <path id="Path_1442" data-name="Path 1442" d="M16.3,73.817a16.669,16.669,0,0,1,0-33.329,16.669,16.669,0,0,1,0,33.329m0-27.735a11.076,11.076,0,0,0,0,22.14,11.076,11.076,0,0,0,0-22.14" transform="translate(0 -16.61)" fill="#4c00a9"/>
      <path id="Path_1443" data-name="Path 1443" d="M69.144,73.6a2.8,2.8,0,0,1-2.8-2.8V43.1a2.8,2.8,0,0,1,5.022-1.695l16,20.992V42.98a2.8,2.8,0,1,1,5.594,0v27.7a2.8,2.8,0,0,1-5.022,1.7l-16-20.993V70.806a2.8,2.8,0,0,1-2.8,2.8" transform="translate(-27.219 -16.485)" fill="#4c00a9"/>
      <path id="Path_1444" data-name="Path 1444" d="M141.186,73.809h-15.8a2.8,2.8,0,0,1-2.8-2.8V43.187a2.8,2.8,0,0,1,2.8-2.8h16.16a2.8,2.8,0,0,1,0,5.594H128.188V68.215h13a2.8,2.8,0,1,1,0,5.594" transform="translate(-50.294 -16.57)" fill="#4c00a9"/>
      <path id="Path_1445" data-name="Path 1445" d="M141.451,68.647H126.627a2.8,2.8,0,0,1,0-5.595h14.824a2.8,2.8,0,0,1,0,5.595" transform="translate(-50.801 -25.867)" fill="#4c00a9"/>
      <path id="Path_1446" data-name="Path 1446" d="M178.739,74.316a2.8,2.8,0,0,1-2.8-2.8v-27.1a2.8,2.8,0,0,1,5.594,0v27.1a2.8,2.8,0,0,1-2.8,2.8" transform="translate(-72.18 -17.076)" fill="#4c00a9"/>
      <path id="Path_1447" data-name="Path 1447" d="M181.117,46.233H165.2a2.8,2.8,0,0,1,0-5.594h15.918a2.8,2.8,0,0,1,0,5.594" transform="translate(-66.625 -16.672)" fill="#4c00a9"/>
    </g>
  </g>
</svg>
